<svg width="1342" height="1193" viewBox="0 0 1342 1193" fill="none" xmlns="http://www.w3.org/2000/svg">
<path d="M1030 576V592C1030 596.418 1026.42 600 1022 600H1006" stroke="#1A2156"/>
<path d="M1030 624V608C1030 603.582 1026.42 600 1022 600H1006" stroke="#1A2156"/>
<path d="M1030 576V592C1030 596.418 1033.58 600 1038 600H1054" stroke="#1A2156"/>
<path d="M1030 624V608C1030 603.582 1033.58 600 1038 600H1054" stroke="#1A2156"/>
<path d="M1030 528V544C1030 548.418 1026.42 552 1022 552H1006" stroke="#1A2156"/>
<path d="M1030 576V560C1030 555.582 1026.42 552 1022 552H1006" stroke="#1A2156"/>
<path d="M1030 528V544C1030 548.418 1033.58 552 1038 552H1054" stroke="#1A2156"/>
<path d="M1030 576V560C1030 555.582 1033.58 552 1038 552H1054" stroke="#1A2156"/>
<path d="M888 528V544C888 548.418 884.418 552 880 552H864" stroke="#1A2156"/>
<path d="M888 576V560C888 555.582 884.418 552 880 552H864" stroke="#1A2156"/>
<path d="M888 528V544C888 548.418 891.582 552 896 552H912" stroke="#1A2156"/>
<path d="M888 576V560C888 555.582 891.582 552 896 552H912" stroke="#1A2156"/>
<path d="M600 624V640C600 644.418 596.418 648 592 648H576" stroke="#1A2156"/>
<path d="M600 672V656C600 651.582 596.418 648 592 648H576" stroke="#1A2156"/>
<path d="M600 624V640C600 644.418 603.582 648 608 648H624" stroke="#1A2156"/>
<path d="M600 672V656C600 651.582 603.582 648 608 648H624" stroke="#1A2156"/>
<path d="M552 624V640C552 644.418 548.418 648 544 648H528" stroke="#1A2156"/>
<path d="M552 672V656C552 651.582 548.418 648 544 648H528" stroke="#1A2156"/>
<path d="M552 624V640C552 644.418 555.582 648 560 648H576" stroke="#1A2156"/>
<path d="M552 672V656C552 651.582 555.582 648 560 648H576" stroke="#1A2156"/>
<path d="M456 624V640C456 644.418 452.418 648 448 648H432" stroke="#1A2156"/>
<path d="M456 672V656C456 651.582 452.418 648 448 648H432" stroke="#1A2156"/>
<path d="M456 624V640C456 644.418 459.582 648 464 648H480" stroke="#1A2156"/>
<path d="M456 672V656C456 651.582 459.582 648 464 648H480" stroke="#1A2156"/>
<path d="M696 480V496C696 500.418 692.418 504 688 504H672" stroke="#1A2156"/>
<path d="M696 528V512C696 507.582 692.418 504 688 504H672" stroke="#1A2156"/>
<path d="M696 480V496C696 500.418 699.582 504 704 504H720" stroke="#1A2156"/>
<path d="M696 528V512C696 507.582 699.582 504 704 504H720" stroke="#1A2156"/>
<path d="M552 432V448C552 452.418 548.418 456 544 456H528" stroke="#1A2156"/>
<path d="M552 480V464C552 459.582 548.418 456 544 456H528" stroke="#1A2156"/>
<path d="M552 432V448C552 452.418 555.582 456 560 456H576" stroke="#1A2156"/>
<path d="M552 480V464C552 459.582 555.582 456 560 456H576" stroke="#1A2156"/>
<path d="M408 528V544C408 548.418 404.418 552 400 552H384" stroke="#1A2156"/>
<path d="M408 576V560C408 555.582 404.418 552 400 552H384" stroke="#1A2156"/>
<path d="M408 528V544C408 548.418 411.582 552 416 552H432" stroke="#1A2156"/>
<path d="M408 576V560C408 555.582 411.582 552 416 552H432" stroke="#1A2156"/>
<path d="M360 528V544C360 548.418 356.418 552 352 552H336" stroke="#1A2156"/>
<path d="M360 576V560C360 555.582 356.418 552 352 552H336" stroke="#1A2156"/>
<path d="M360 528V544C360 548.418 363.582 552 368 552H384" stroke="#1A2156"/>
<path d="M360 576V560C360 555.582 363.582 552 368 552H384" stroke="#1A2156"/>
<path d="M1078 528V544C1078 548.418 1074.42 552 1070 552H1054" stroke="#1A2156"/>
<path d="M1078 576V560C1078 555.582 1074.42 552 1070 552H1054" stroke="#1A2156"/>
<path d="M1078 528V544C1078 548.418 1081.58 552 1086 552H1102" stroke="#1A2156"/>
<path d="M1078 576V560C1078 555.582 1081.58 552 1086 552H1102" stroke="#1A2156"/>
<path d="M1270 528V544C1270 548.418 1266.42 552 1262 552H1246" stroke="#1A2156"/>
<path d="M1270 576V560C1270 555.582 1266.42 552 1262 552H1246" stroke="#1A2156"/>
<path d="M1270 528V544C1270 548.418 1273.58 552 1278 552H1294" stroke="#1A2156"/>
<path d="M1270 576V560C1270 555.582 1273.58 552 1278 552H1294" stroke="#1A2156"/>
<path d="M1318 480V496C1318 500.418 1314.42 504 1310 504H1294" stroke="#1A2156"/>
<path d="M1318 528V512C1318 507.582 1314.42 504 1310 504H1294" stroke="#1A2156"/>
<path d="M1318 480V496C1318 500.418 1321.58 504 1326 504H1342" stroke="#1A2156"/>
<path d="M1318 528V512C1318 507.582 1321.58 504 1326 504H1342" stroke="#1A2156"/>
<path d="M1078 384V400C1078 404.418 1074.42 408 1070 408H1054" stroke="#1A2156"/>
<path d="M1078 432V416C1078 411.582 1074.42 408 1070 408H1054" stroke="#1A2156"/>
<path d="M1078 384V400C1078 404.418 1081.58 408 1086 408H1102" stroke="#1A2156"/>
<path d="M1078 432V416C1078 411.582 1081.58 408 1086 408H1102" stroke="#1A2156"/>
<path d="M1222 240V256C1222 260.418 1218.42 264 1214 264H1198" stroke="#1A2156"/>
<path d="M1222 288V272C1222 267.582 1218.42 264 1214 264H1198" stroke="#1A2156"/>
<path d="M1222 240V256C1222 260.418 1225.58 264 1230 264H1246" stroke="#1A2156"/>
<path d="M1222 288V272C1222 267.582 1225.58 264 1230 264H1246" stroke="#1A2156"/>
<path d="M120 336V352C120 356.418 116.418 360 112 360H96" stroke="#1A2156"/>
<path d="M120 384V368C120 363.582 116.418 360 112 360H96" stroke="#1A2156"/>
<path d="M120 336V352C120 356.418 123.582 360 128 360H144" stroke="#1A2156"/>
<path d="M120 384V368C120 363.582 123.582 360 128 360H144" stroke="#1A2156"/>
<path d="M168 0V16C168 20.4183 164.418 24 160 24H144" stroke="#1A2156"/>
<path d="M168 48V32C168 27.5817 164.418 24 160 24H144" stroke="#1A2156"/>
<path d="M168 0V16C168 20.4183 171.582 24 176 24H192" stroke="#1A2156"/>
<path d="M168 48V32C168 27.5817 171.582 24 176 24H192" stroke="#1A2156"/>
<path d="M1078 672V688C1078 692.418 1074.42 696 1070 696H1054" stroke="#1A2156"/>
<path d="M1078 720V704C1078 699.582 1074.42 696 1070 696H1054" stroke="#1A2156"/>
<path d="M1078 672V688C1078 692.418 1081.58 696 1086 696H1102" stroke="#1A2156"/>
<path d="M1078 720V704C1078 699.582 1081.58 696 1086 696H1102" stroke="#1A2156"/>
<path d="M982 672V688C982 692.418 978.418 696 974 696H958" stroke="#1A2156"/>
<path d="M982 720V704C982 699.582 978.418 696 974 696H958" stroke="#1A2156"/>
<path d="M982 672V688C982 692.418 985.582 696 990 696H1006" stroke="#1A2156"/>
<path d="M982 720V704C982 699.582 985.582 696 990 696H1006" stroke="#1A2156"/>
<path d="M888 672V688C888 692.418 884.418 696 880 696H864" stroke="#1A2156"/>
<path d="M888 720V704C888 699.582 884.418 696 880 696H864" stroke="#1A2156"/>
<path d="M888 672V688C888 692.418 891.582 696 896 696H912" stroke="#1A2156"/>
<path d="M888 720V704C888 699.582 891.582 696 896 696H912" stroke="#1A2156"/>
<path d="M744 576V592C744 596.418 740.418 600 736 600H720" stroke="#1A2156"/>
<path d="M744 624V608C744 603.582 740.418 600 736 600H720" stroke="#1A2156"/>
<path d="M744 576V592C744 596.418 747.582 600 752 600H768" stroke="#1A2156"/>
<path d="M744 624V608C744 603.582 747.582 600 752 600H768" stroke="#1A2156"/>
<path d="M696 672V688C696 692.418 692.418 696 688 696H672" stroke="#1A2156"/>
<path d="M696 720V704C696 699.582 692.418 696 688 696H672" stroke="#1A2156"/>
<path d="M696 672V688C696 692.418 699.582 696 704 696H720" stroke="#1A2156"/>
<path d="M696 720V704C696 699.582 699.582 696 704 696H720" stroke="#1A2156"/>
<path d="M312 720V736C312 740.418 308.418 744 304 744H288" stroke="#1A2156"/>
<path d="M312 768V752C312 747.582 308.418 744 304 744H288" stroke="#1A2156"/>
<path d="M312 720V736C312 740.418 315.582 744 320 744H336" stroke="#1A2156"/>
<path d="M312 768V752C312 747.582 315.582 744 320 744H336" stroke="#1A2156"/>
<path d="M408 720V736C408 740.418 404.418 744 400 744H384" stroke="#1A2156"/>
<path d="M408 768V752C408 747.582 404.418 744 400 744H384" stroke="#1A2156"/>
<path d="M408 720V736C408 740.418 411.582 744 416 744H432" stroke="#1A2156"/>
<path d="M408 768V752C408 747.582 411.582 744 416 744H432" stroke="#1A2156"/>
<path d="M264 672V688C264 692.418 260.418 696 256 696H240" stroke="#1A2156"/>
<path d="M264 720V704C264 699.582 260.418 696 256 696H240" stroke="#1A2156"/>
<path d="M264 672V688C264 692.418 267.582 696 272 696H288" stroke="#1A2156"/>
<path d="M264 720V704C264 699.582 267.582 696 272 696H288" stroke="#1A2156"/>
<path d="M120 672V688C120 692.418 116.418 696 112 696H96" stroke="#1A2156"/>
<path d="M120 720V704C120 699.582 116.418 696 112 696H96" stroke="#1A2156"/>
<path d="M120 672V688C120 692.418 123.582 696 128 696H144" stroke="#1A2156"/>
<path d="M120 720V704C120 699.582 123.582 696 128 696H144" stroke="#1A2156"/>
<path d="M120 720V736C120 740.418 116.418 744 112 744H96" stroke="#1A2156"/>
<path d="M120 768V752C120 747.582 116.418 744 112 744H96" stroke="#1A2156"/>
<path d="M120 720V736C120 740.418 123.582 744 128 744H144" stroke="#1A2156"/>
<path d="M120 768V752C120 747.582 123.582 744 128 744H144" stroke="#1A2156"/>
<path d="M72 672V688C72 692.418 68.4183 696 64 696H48" stroke="#1A2156"/>
<path d="M72 720V704C72 699.582 68.4183 696 64 696H48" stroke="#1A2156"/>
<path d="M72 672V688C72 692.418 75.5817 696 80 696H96" stroke="#1A2156"/>
<path d="M72 720V704C72 699.582 75.5817 696 80 696H96" stroke="#1A2156"/>
<path d="M940 720V736C940 740.418 936.418 744 932 744H916" stroke="#1A2156"/>
<path d="M940 768V752C940 747.582 936.418 744 932 744H916" stroke="#1A2156"/>
<path d="M940 720V736C940 740.418 943.582 744 948 744H964" stroke="#1A2156"/>
<path d="M940 768V752C940 747.582 943.582 744 948 744H964" stroke="#1A2156"/>
<path d="M1078 816V832C1078 836.418 1074.42 840 1070 840H1054" stroke="#1A2156"/>
<path d="M1078 864V848C1078 843.582 1074.42 840 1070 840H1054" stroke="#1A2156"/>
<path d="M1078 816V832C1078 836.418 1081.58 840 1086 840H1102" stroke="#1A2156"/>
<path d="M1078 864V848C1078 843.582 1081.58 840 1086 840H1102" stroke="#1A2156"/>
<path d="M982 816V832C982 836.418 978.418 840 974 840H958" stroke="#1A2156"/>
<path d="M982 864V848C982 843.582 978.418 840 974 840H958" stroke="#1A2156"/>
<path d="M982 816V832C982 836.418 985.582 840 990 840H1006" stroke="#1A2156"/>
<path d="M982 864V848C982 843.582 985.582 840 990 840H1006" stroke="#1A2156"/>
<path d="M24 816V832C24 836.418 20.4183 840 16 840H0" stroke="#1A2156"/>
<path d="M24 864V848C24 843.582 20.4183 840 16 840H0" stroke="#1A2156"/>
<path d="M24 816V832C24 836.418 27.5817 840 32 840H48" stroke="#1A2156"/>
<path d="M24 864V848C24 843.582 27.5817 840 32 840H48" stroke="#1A2156"/>
<path d="M982 1056V1072C982 1076.42 978.418 1080 974 1080H958" stroke="#1A2156"/>
<path d="M982 1104V1088C982 1083.58 978.418 1080 974 1080H958" stroke="#1A2156"/>
<path d="M982 1056V1072C982 1076.42 985.582 1080 990 1080H1006" stroke="#1A2156"/>
<path d="M982 1104V1088C982 1083.58 985.582 1080 990 1080H1006" stroke="#1A2156"/>
<path d="M552 1053V1069C552 1073.42 548.418 1077 544 1077H528" stroke="#1A2156"/>
<path d="M552 1101V1085C552 1080.58 548.418 1077 544 1077H528" stroke="#1A2156"/>
<path d="M552 1053V1069C552 1073.42 555.582 1077 560 1077H576" stroke="#1A2156"/>
<path d="M552 1101V1085C552 1080.58 555.582 1077 560 1077H576" stroke="#1A2156"/>
<path d="M696 1005V1021C696 1025.42 692.418 1029 688 1029H672" stroke="#1A2156"/>
<path d="M696 1053V1037C696 1032.58 692.418 1029 688 1029H672" stroke="#1A2156"/>
<path d="M696 1005V1021C696 1025.42 699.582 1029 704 1029H720" stroke="#1A2156"/>
<path d="M696 1053V1037C696 1032.58 699.582 1029 704 1029H720" stroke="#1A2156"/>
<path d="M312 1005V1021C312 1025.42 308.418 1029 304 1029H288" stroke="#1A2156"/>
<path d="M312 1053V1037C312 1032.58 308.418 1029 304 1029H288" stroke="#1A2156"/>
<path d="M312 1005V1021C312 1025.42 315.582 1029 320 1029H336" stroke="#1A2156"/>
<path d="M312 1053V1037C312 1032.58 315.582 1029 320 1029H336" stroke="#1A2156"/>
<path d="M792 909V925C792 929.418 788.418 933 784 933H768" stroke="#1A2156"/>
<path d="M792 957V941C792 936.582 788.418 933 784 933H768" stroke="#1A2156"/>
<path d="M792 909V925C792 929.418 795.582 933 800 933H816" stroke="#1A2156"/>
<path d="M792 957V941C792 936.582 795.582 933 800 933H816" stroke="#1A2156"/>
<path d="M792 861V877C792 881.418 788.418 885 784 885H768" stroke="#1A2156"/>
<path d="M792 909V893C792 888.582 788.418 885 784 885H768" stroke="#1A2156"/>
<path d="M792 861V877C792 881.418 795.582 885 800 885H816" stroke="#1A2156"/>
<path d="M792 909V893C792 888.582 795.582 885 800 885H816" stroke="#1A2156"/>
<path d="M792 765V781C792 785.418 788.418 789 784 789H768" stroke="#1A2156"/>
<path d="M792 813V797C792 792.582 788.418 789 784 789H768" stroke="#1A2156"/>
<path d="M792 765V781C792 785.418 795.582 789 800 789H816" stroke="#1A2156"/>
<path d="M792 813V797C792 792.582 795.582 789 800 789H816" stroke="#1A2156"/>
<path d="M600 765V781C600 785.418 596.418 789 592 789H576" stroke="#1A2156"/>
<path d="M600 813V797C600 792.582 596.418 789 592 789H576" stroke="#1A2156"/>
<path d="M600 765V781C600 785.418 603.582 789 608 789H624" stroke="#1A2156"/>
<path d="M600 813V797C600 792.582 603.582 789 608 789H624" stroke="#1A2156"/>
<path d="M456 909V925C456 929.418 452.418 933 448 933H432" stroke="#1A2156"/>
<path d="M456 957V941C456 936.582 452.418 933 448 933H432" stroke="#1A2156"/>
<path d="M456 909V925C456 929.418 459.582 933 464 933H480" stroke="#1A2156"/>
<path d="M456 957V941C456 936.582 459.582 933 464 933H480" stroke="#1A2156"/>
<path d="M504 909V925C504 929.418 500.418 933 496 933H480" stroke="#1A2156"/>
<path d="M504 957V941C504 936.582 500.418 933 496 933H480" stroke="#1A2156"/>
<path d="M504 909V925C504 929.418 507.582 933 512 933H528" stroke="#1A2156"/>
<path d="M504 957V941C504 936.582 507.582 933 512 933H528" stroke="#1A2156"/>
<path d="M600 909V925C600 929.418 596.418 933 592 933H576" stroke="#1A2156"/>
<path d="M600 957V941C600 936.582 596.418 933 592 933H576" stroke="#1A2156"/>
<path d="M600 909V925C600 929.418 603.582 933 608 933H624" stroke="#1A2156"/>
<path d="M600 957V941C600 936.582 603.582 933 608 933H624" stroke="#1A2156"/>
<path d="M504 861V877C504 881.418 500.418 885 496 885H480" stroke="#1A2156"/>
<path d="M504 909V893C504 888.582 500.418 885 496 885H480" stroke="#1A2156"/>
<path d="M504 861V877C504 881.418 507.582 885 512 885H528" stroke="#1A2156"/>
<path d="M504 909V893C504 888.582 507.582 885 512 885H528" stroke="#1A2156"/>
<path d="M1270 672V688C1270 692.418 1266.42 696 1262 696H1246" stroke="#1A2156"/>
<path d="M1270 720V704C1270 699.582 1266.42 696 1262 696H1246" stroke="#1A2156"/>
<path d="M1270 672V688C1270 692.418 1273.58 696 1278 696H1294" stroke="#1A2156"/>
<path d="M1270 720V704C1270 699.582 1273.58 696 1278 696H1294" stroke="#1A2156"/>
</svg>
