<svg width="1086" height="786" viewBox="0 0 1086 786" fill="none" xmlns="http://www.w3.org/2000/svg">
<path d="M97 785V769C97 764.582 100.582 761 105 761H121" stroke="#10526F" stroke-linecap="round" stroke-linejoin="round"/>
<path d="M97 737V753C97 757.418 100.582 761 105 761H121" stroke="#10526F" stroke-linecap="round" stroke-linejoin="round"/>
<path d="M97 785V769C97 764.582 93.4183 761 89 761H73" stroke="#10526F" stroke-linecap="round" stroke-linejoin="round"/>
<path d="M97 737V753C97 757.418 93.4183 761 89 761H73" stroke="#10526F" stroke-linecap="round" stroke-linejoin="round"/>
<path d="M773 65V81C773 85.4183 776.582 89 781 89H797" stroke="#10526F" stroke-linecap="round" stroke-linejoin="round"/>
<path d="M773 113V97C773 92.5817 776.582 89 781 89H797" stroke="#10526F" stroke-linecap="round" stroke-linejoin="round"/>
<path d="M773 65V81C773 85.4183 769.418 89 765 89H749" stroke="#10526F" stroke-linecap="round" stroke-linejoin="round"/>
<path d="M773 113V97C773 92.5817 769.418 89 765 89H749" stroke="#10526F" stroke-linecap="round" stroke-linejoin="round"/>
<path d="M25 689V673C25 668.582 28.5817 665 33 665H49" stroke="#10526F" stroke-linecap="round" stroke-linejoin="round"/>
<path d="M25 641V657C25 661.418 28.5817 665 33 665H49" stroke="#10526F" stroke-linecap="round" stroke-linejoin="round"/>
<path d="M25 689V673C25 668.582 21.4183 665 17 665H1" stroke="#10526F" stroke-linecap="round" stroke-linejoin="round"/>
<path d="M25 641V657C25 661.418 21.4183 665 17 665H1" stroke="#10526F" stroke-linecap="round" stroke-linejoin="round"/>
<path d="M893 65V81C893 85.4183 896.582 89 901 89H917" stroke="#10526F" stroke-linecap="round" stroke-linejoin="round"/>
<path d="M893 113V97C893 92.5817 896.582 89 901 89H917" stroke="#10526F" stroke-linecap="round" stroke-linejoin="round"/>
<path d="M893 65V81C893 85.4183 889.418 89 885 89H869" stroke="#10526F" stroke-linecap="round" stroke-linejoin="round"/>
<path d="M893 113V97C893 92.5817 889.418 89 885 89H869" stroke="#10526F" stroke-linecap="round" stroke-linejoin="round"/>
<path d="M145 689V673C145 668.582 148.582 665 153 665H169" stroke="#10526F" stroke-linecap="round" stroke-linejoin="round"/>
<path d="M145 641V657C145 661.418 148.582 665 153 665H169" stroke="#10526F" stroke-linecap="round" stroke-linejoin="round"/>
<path d="M145 689V673C145 668.582 141.418 665 137 665H121" stroke="#10526F" stroke-linecap="round" stroke-linejoin="round"/>
<path d="M145 641V657C145 661.418 141.418 665 137 665H121" stroke="#10526F" stroke-linecap="round" stroke-linejoin="round"/>
<path d="M869 137V153C869 157.418 872.582 161 877 161H893" stroke="#10526F" stroke-linecap="round" stroke-linejoin="round"/>
<path d="M869 185V169C869 164.582 872.582 161 877 161H893" stroke="#10526F" stroke-linecap="round" stroke-linejoin="round"/>
<path d="M869 137V153C869 157.418 865.418 161 861 161H845" stroke="#10526F" stroke-linecap="round" stroke-linejoin="round"/>
<path d="M869 185V169C869 164.582 865.418 161 861 161H845" stroke="#10526F" stroke-linecap="round" stroke-linejoin="round"/>
<path d="M121 617V601C121 596.582 124.582 593 129 593H145" stroke="#10526F" stroke-linecap="round" stroke-linejoin="round"/>
<path d="M121 569V585C121 589.418 124.582 593 129 593H145" stroke="#10526F" stroke-linecap="round" stroke-linejoin="round"/>
<path d="M121 617V601C121 596.582 117.418 593 113 593H97" stroke="#10526F" stroke-linecap="round" stroke-linejoin="round"/>
<path d="M121 569V585C121 589.418 117.418 593 113 593H97" stroke="#10526F" stroke-linecap="round" stroke-linejoin="round"/>
<path d="M845 185V201C845 205.418 848.582 209 853 209H869" stroke="#10526F" stroke-linecap="round" stroke-linejoin="round"/>
<path d="M845 233V217C845 212.582 848.582 209 853 209H869" stroke="#10526F" stroke-linecap="round" stroke-linejoin="round"/>
<path d="M845 185V201C845 205.418 841.418 209 837 209H821" stroke="#10526F" stroke-linecap="round" stroke-linejoin="round"/>
<path d="M845 233V217C845 212.582 841.418 209 837 209H821" stroke="#10526F" stroke-linecap="round" stroke-linejoin="round"/>
<path d="M97 569V553C97 548.582 100.582 545 105 545H121" stroke="#10526F" stroke-linecap="round" stroke-linejoin="round"/>
<path d="M97 521V537C97 541.418 100.582 545 105 545H121" stroke="#10526F" stroke-linecap="round" stroke-linejoin="round"/>
<path d="M97 569V553C97 548.582 93.4183 545 89 545H73" stroke="#10526F" stroke-linecap="round" stroke-linejoin="round"/>
<path d="M97 521V537C97 541.418 93.4183 545 89 545H73" stroke="#10526F" stroke-linecap="round" stroke-linejoin="round"/>
<path d="M917 137V153C917 157.418 920.582 161 925 161H941" stroke="#10526F" stroke-linecap="round" stroke-linejoin="round"/>
<path d="M917 185V169C917 164.582 920.582 161 925 161H941" stroke="#10526F" stroke-linecap="round" stroke-linejoin="round"/>
<path d="M917 137V153C917 157.418 913.418 161 909 161H893" stroke="#10526F" stroke-linecap="round" stroke-linejoin="round"/>
<path d="M917 185V169C917 164.582 913.418 161 909 161H893" stroke="#10526F" stroke-linecap="round" stroke-linejoin="round"/>
<path d="M169 617V601C169 596.582 172.582 593 177 593H193" stroke="#10526F" stroke-linecap="round" stroke-linejoin="round"/>
<path d="M169 569V585C169 589.418 172.582 593 177 593H193" stroke="#10526F" stroke-linecap="round" stroke-linejoin="round"/>
<path d="M169 617V601C169 596.582 165.418 593 161 593H145" stroke="#10526F" stroke-linecap="round" stroke-linejoin="round"/>
<path d="M169 569V585C169 589.418 165.418 593 161 593H145" stroke="#10526F" stroke-linecap="round" stroke-linejoin="round"/>
<path d="M917 185V201C917 205.418 920.582 209 925 209H941" stroke="#10526F" stroke-linecap="round" stroke-linejoin="round"/>
<path d="M917 233V217C917 212.582 920.582 209 925 209H941" stroke="#10526F" stroke-linecap="round" stroke-linejoin="round"/>
<path d="M917 185V201C917 205.418 913.418 209 909 209H893" stroke="#10526F" stroke-linecap="round" stroke-linejoin="round"/>
<path d="M917 233V217C917 212.582 913.418 209 909 209H893" stroke="#10526F" stroke-linecap="round" stroke-linejoin="round"/>
<path d="M169 569V553C169 548.582 172.582 545 177 545H193" stroke="#10526F" stroke-linecap="round" stroke-linejoin="round"/>
<path d="M169 521V537C169 541.418 172.582 545 177 545H193" stroke="#10526F" stroke-linecap="round" stroke-linejoin="round"/>
<path d="M169 569V553C169 548.582 165.418 545 161 545H145" stroke="#10526F" stroke-linecap="round" stroke-linejoin="round"/>
<path d="M169 521V537C169 541.418 165.418 545 161 545H145" stroke="#10526F" stroke-linecap="round" stroke-linejoin="round"/>
<path d="M917 233V249C917 253.418 920.582 257 925 257H941" stroke="#10526F" stroke-linecap="round" stroke-linejoin="round"/>
<path d="M917 281V265C917 260.582 920.582 257 925 257H941" stroke="#10526F" stroke-linecap="round" stroke-linejoin="round"/>
<path d="M917 233V249C917 253.418 913.418 257 909 257H893" stroke="#10526F" stroke-linecap="round" stroke-linejoin="round"/>
<path d="M917 281V265C917 260.582 913.418 257 909 257H893" stroke="#10526F" stroke-linecap="round" stroke-linejoin="round"/>
<path d="M169 521V505C169 500.582 172.582 497 177 497H193" stroke="#10526F" stroke-linecap="round" stroke-linejoin="round"/>
<path d="M169 473V489C169 493.418 172.582 497 177 497H193" stroke="#10526F" stroke-linecap="round" stroke-linejoin="round"/>
<path d="M169 521V505C169 500.582 165.418 497 161 497H145" stroke="#10526F" stroke-linecap="round" stroke-linejoin="round"/>
<path d="M169 473V489C169 493.418 165.418 497 161 497H145" stroke="#10526F" stroke-linecap="round" stroke-linejoin="round"/>
<path d="M917 305V321C917 325.418 920.582 329 925 329H941" stroke="#10526F" stroke-linecap="round" stroke-linejoin="round"/>
<path d="M917 353V337C917 332.582 920.582 329 925 329H941" stroke="#10526F" stroke-linecap="round" stroke-linejoin="round"/>
<path d="M917 305V321C917 325.418 913.418 329 909 329H893" stroke="#10526F" stroke-linecap="round" stroke-linejoin="round"/>
<path d="M917 353V337C917 332.582 913.418 329 909 329H893" stroke="#10526F" stroke-linecap="round" stroke-linejoin="round"/>
<path d="M797 305V321C797 325.418 800.582 329 805 329H821" stroke="#10526F" stroke-linecap="round" stroke-linejoin="round"/>
<path d="M797 353V337C797 332.582 800.582 329 805 329H821" stroke="#10526F" stroke-linecap="round" stroke-linejoin="round"/>
<path d="M797 305V321C797 325.418 793.418 329 789 329H773" stroke="#10526F" stroke-linecap="round" stroke-linejoin="round"/>
<path d="M797 353V337C797 332.582 793.418 329 789 329H773" stroke="#10526F" stroke-linecap="round" stroke-linejoin="round"/>
<path d="M797 569V585C797 589.418 800.582 593 805 593H821" stroke="#10526F" stroke-linecap="round" stroke-linejoin="round"/>
<path d="M797 617V601C797 596.582 800.582 593 805 593H821" stroke="#10526F" stroke-linecap="round" stroke-linejoin="round"/>
<path d="M797 569V585C797 589.418 793.418 593 789 593H773" stroke="#10526F" stroke-linecap="round" stroke-linejoin="round"/>
<path d="M797 617V601C797 596.582 793.418 593 789 593H773" stroke="#10526F" stroke-linecap="round" stroke-linejoin="round"/>
<path d="M169 449V433C169 428.582 172.582 425 177 425H193" stroke="#10526F" stroke-linecap="round" stroke-linejoin="round"/>
<path d="M169 401V417C169 421.418 172.582 425 177 425H193" stroke="#10526F" stroke-linecap="round" stroke-linejoin="round"/>
<path d="M169 449V433C169 428.582 165.418 425 161 425H145" stroke="#10526F" stroke-linecap="round" stroke-linejoin="round"/>
<path d="M169 401V417C169 421.418 165.418 425 161 425H145" stroke="#10526F" stroke-linecap="round" stroke-linejoin="round"/>
<path d="M917 425V441C917 445.418 920.582 449 925 449H941" stroke="#10526F" stroke-linecap="round" stroke-linejoin="round"/>
<path d="M917 473V457C917 452.582 920.582 449 925 449H941" stroke="#10526F" stroke-linecap="round" stroke-linejoin="round"/>
<path d="M917 425V441C917 445.418 913.418 449 909 449H893" stroke="#10526F" stroke-linecap="round" stroke-linejoin="round"/>
<path d="M917 473V457C917 452.582 913.418 449 909 449H893" stroke="#10526F" stroke-linecap="round" stroke-linejoin="round"/>
<path d="M169 329V313C169 308.582 172.582 305 177 305H193" stroke="#10526F" stroke-linecap="round" stroke-linejoin="round"/>
<path d="M169 281V297C169 301.418 172.582 305 177 305H193" stroke="#10526F" stroke-linecap="round" stroke-linejoin="round"/>
<path d="M169 329V313C169 308.582 165.418 305 161 305H145" stroke="#10526F" stroke-linecap="round" stroke-linejoin="round"/>
<path d="M169 281V297C169 301.418 165.418 305 161 305H145" stroke="#10526F" stroke-linecap="round" stroke-linejoin="round"/>
<path d="M289 329V313C289 308.582 292.582 305 297 305H313" stroke="#10526F" stroke-linecap="round" stroke-linejoin="round"/>
<path d="M289 281V297C289 301.418 292.582 305 297 305H313" stroke="#10526F" stroke-linecap="round" stroke-linejoin="round"/>
<path d="M289 329V313C289 308.582 285.418 305 281 305H265" stroke="#10526F" stroke-linecap="round" stroke-linejoin="round"/>
<path d="M289 281V297C289 301.418 285.418 305 281 305H265" stroke="#10526F" stroke-linecap="round" stroke-linejoin="round"/>
<path d="M289 282V266C289 261.582 292.582 258 297 258H313" stroke="#10526F" stroke-linecap="round" stroke-linejoin="round"/>
<path d="M289 234V250C289 254.418 292.582 258 297 258H313" stroke="#10526F" stroke-linecap="round" stroke-linejoin="round"/>
<path d="M289 282V266C289 261.582 285.418 258 281 258H265" stroke="#10526F" stroke-linecap="round" stroke-linejoin="round"/>
<path d="M289 234V250C289 254.418 285.418 258 281 258H265" stroke="#10526F" stroke-linecap="round" stroke-linejoin="round"/>
<path d="M289 122V106C289 101.582 292.582 98 297 98H313" stroke="#10526F" stroke-linecap="round" stroke-linejoin="round"/>
<path d="M289 74V90C289 94.4183 292.582 98 297 98H313" stroke="#10526F" stroke-linecap="round" stroke-linejoin="round"/>
<path d="M289 122V106C289 101.582 285.418 98 281 98H265" stroke="#10526F" stroke-linecap="round" stroke-linejoin="round"/>
<path d="M289 74V90C289 94.4183 285.418 98 281 98H265" stroke="#10526F" stroke-linecap="round" stroke-linejoin="round"/>
<path d="M989 305V321C989 325.418 992.582 329 997 329H1013" stroke="#10526F" stroke-linecap="round" stroke-linejoin="round"/>
<path d="M989 353V337C989 332.582 992.582 329 997 329H1013" stroke="#10526F" stroke-linecap="round" stroke-linejoin="round"/>
<path d="M989 305V321C989 325.418 985.418 329 981 329H965" stroke="#10526F" stroke-linecap="round" stroke-linejoin="round"/>
<path d="M989 353V337C989 332.582 985.418 329 981 329H965" stroke="#10526F" stroke-linecap="round" stroke-linejoin="round"/>
<path d="M241 425V409C241 404.582 244.582 401 249 401H265" stroke="#10526F" stroke-linecap="round" stroke-linejoin="round"/>
<path d="M241 377V393C241 397.418 244.582 401 249 401H265" stroke="#10526F" stroke-linecap="round" stroke-linejoin="round"/>
<path d="M241 425V409C241 404.582 237.418 401 233 401H217" stroke="#10526F" stroke-linecap="round" stroke-linejoin="round"/>
<path d="M241 377V393C241 397.418 237.418 401 233 401H217" stroke="#10526F" stroke-linecap="round" stroke-linejoin="round"/>
<path d="M1061 305V321C1061 325.418 1064.58 329 1069 329H1085" stroke="#10526F" stroke-linecap="round" stroke-linejoin="round"/>
<path d="M1061 353V337C1061 332.582 1064.58 329 1069 329H1085" stroke="#10526F" stroke-linecap="round" stroke-linejoin="round"/>
<path d="M1061 305V321C1061 325.418 1057.42 329 1053 329H1037" stroke="#10526F" stroke-linecap="round" stroke-linejoin="round"/>
<path d="M1061 353V337C1061 332.582 1057.42 329 1053 329H1037" stroke="#10526F" stroke-linecap="round" stroke-linejoin="round"/>
<path d="M289 425V409C289 404.582 292.582 401 297 401H313" stroke="#10526F" stroke-linecap="round" stroke-linejoin="round"/>
<path d="M289 377V393C289 397.418 292.582 401 297 401H313" stroke="#10526F" stroke-linecap="round" stroke-linejoin="round"/>
<path d="M289 425V409C289 404.582 285.418 401 281 401H265" stroke="#10526F" stroke-linecap="round" stroke-linejoin="round"/>
<path d="M289 377V393C289 397.418 285.418 401 281 401H265" stroke="#10526F" stroke-linecap="round" stroke-linejoin="round"/>
<path d="M989 137V153C989 157.418 992.582 161 997 161H1013" stroke="#10526F" stroke-linecap="round" stroke-linejoin="round"/>
<path d="M989 185V169C989 164.582 992.582 161 997 161H1013" stroke="#10526F" stroke-linecap="round" stroke-linejoin="round"/>
<path d="M989 137V153C989 157.418 985.418 161 981 161H965" stroke="#10526F" stroke-linecap="round" stroke-linejoin="round"/>
<path d="M989 185V169C989 164.582 985.418 161 981 161H965" stroke="#10526F" stroke-linecap="round" stroke-linejoin="round"/>
<path d="M241 617V601C241 596.582 244.582 593 249 593H265" stroke="#10526F" stroke-linecap="round" stroke-linejoin="round"/>
<path d="M241 569V585C241 589.418 244.582 593 249 593H265" stroke="#10526F" stroke-linecap="round" stroke-linejoin="round"/>
<path d="M241 617V601C241 596.582 237.418 593 233 593H217" stroke="#10526F" stroke-linecap="round" stroke-linejoin="round"/>
<path d="M241 569V585C241 589.418 237.418 593 233 593H217" stroke="#10526F" stroke-linecap="round" stroke-linejoin="round"/>
<path d="M941 89V105C941 109.418 944.582 113 949 113H965" stroke="#10526F" stroke-linecap="round" stroke-linejoin="round"/>
<path d="M941 137V121C941 116.582 944.582 113 949 113H965" stroke="#10526F" stroke-linecap="round" stroke-linejoin="round"/>
<path d="M941 89V105C941 109.418 937.418 113 933 113H917" stroke="#10526F" stroke-linecap="round" stroke-linejoin="round"/>
<path d="M941 137V121C941 116.582 937.418 113 933 113H917" stroke="#10526F" stroke-linecap="round" stroke-linejoin="round"/>
<path d="M193 665V649C193 644.582 196.582 641 201 641H217" stroke="#10526F" stroke-linecap="round" stroke-linejoin="round"/>
<path d="M193 617V633C193 637.418 196.582 641 201 641H217" stroke="#10526F" stroke-linecap="round" stroke-linejoin="round"/>
<path d="M193 665V649C193 644.582 189.418 641 185 641H169" stroke="#10526F" stroke-linecap="round" stroke-linejoin="round"/>
<path d="M193 617V633C193 637.418 189.418 641 185 641H169" stroke="#10526F" stroke-linecap="round" stroke-linejoin="round"/>
<path d="M1013 89V105C1013 109.418 1016.58 113 1021 113H1037" stroke="#10526F" stroke-linecap="round" stroke-linejoin="round"/>
<path d="M1013 137V121C1013 116.582 1016.58 113 1021 113H1037" stroke="#10526F" stroke-linecap="round" stroke-linejoin="round"/>
<path d="M1013 89V105C1013 109.418 1009.42 113 1005 113H989" stroke="#10526F" stroke-linecap="round" stroke-linejoin="round"/>
<path d="M1013 137V121C1013 116.582 1009.42 113 1005 113H989" stroke="#10526F" stroke-linecap="round" stroke-linejoin="round"/>
<path d="M265 665V649C265 644.582 268.582 641 273 641H289" stroke="#10526F" stroke-linecap="round" stroke-linejoin="round"/>
<path d="M265 617V633C265 637.418 268.582 641 273 641H289" stroke="#10526F" stroke-linecap="round" stroke-linejoin="round"/>
<path d="M265 665V649C265 644.582 261.418 641 257 641H241" stroke="#10526F" stroke-linecap="round" stroke-linejoin="round"/>
<path d="M265 617V633C265 637.418 261.418 641 257 641H241" stroke="#10526F" stroke-linecap="round" stroke-linejoin="round"/>
<path d="M313 665V649C313 644.582 316.582 641 321 641H337" stroke="#10526F" stroke-linecap="round" stroke-linejoin="round"/>
<path d="M313 617V633C313 637.418 316.582 641 321 641H337" stroke="#10526F" stroke-linecap="round" stroke-linejoin="round"/>
<path d="M313 665V649C313 644.582 309.418 641 305 641H289" stroke="#10526F" stroke-linecap="round" stroke-linejoin="round"/>
<path d="M313 617V633C313 637.418 309.418 641 305 641H289" stroke="#10526F" stroke-linecap="round" stroke-linejoin="round"/>
<path d="M409 713V697C409 692.582 412.582 689 417 689H433" stroke="#10526F" stroke-linecap="round" stroke-linejoin="round"/>
<path d="M409 665V681C409 685.418 412.582 689 417 689H433" stroke="#10526F" stroke-linecap="round" stroke-linejoin="round"/>
<path d="M409 713V697C409 692.582 405.418 689 401 689H385" stroke="#10526F" stroke-linecap="round" stroke-linejoin="round"/>
<path d="M409 665V681C409 685.418 405.418 689 401 689H385" stroke="#10526F" stroke-linecap="round" stroke-linejoin="round"/>
<path d="M1013 1V17C1013 21.4183 1016.58 25 1021 25H1037" stroke="#10526F" stroke-linecap="round" stroke-linejoin="round"/>
<path d="M1013 49V33C1013 28.5817 1016.58 25 1021 25H1037" stroke="#10526F" stroke-linecap="round" stroke-linejoin="round"/>
<path d="M1013 1V17C1013 21.4183 1009.42 25 1005 25H989" stroke="#10526F" stroke-linecap="round" stroke-linejoin="round"/>
<path d="M1013 49V33C1013 28.5817 1009.42 25 1005 25H989" stroke="#10526F" stroke-linecap="round" stroke-linejoin="round"/>
</svg>
