<svg width="264" height="264" viewBox="0 0 264 264" fill="none" xmlns="http://www.w3.org/2000/svg">
<g clip-path="url(#clip0)">
<path d="M29 53.07C24.7934 58.5827 21.0315 64.4211 17.75 70.53C3.30024 97.425 -1.18243 128.561 5.09342 158.44C11.3693 188.319 28 215.019 52.0495 233.828C76.0989 252.637 106.02 262.343 136.531 261.235C167.042 260.126 196.18 248.273 218.801 227.768C241.421 207.263 256.07 179.425 260.16 149.17C264.251 118.914 257.52 88.186 241.156 62.4107C224.792 36.6355 199.847 17.4708 170.726 8.30008C141.605 -0.870621 110.18 0.542505 82 12.29" stroke="#0CCDCF" stroke-width="4.59" stroke-miterlimit="10" stroke-linecap="round"/>
<path d="M155.09 140.83L99.05 172.31L44.34 140.73L99.96 109.5" stroke="#7479FF" stroke-width="3.68" stroke-linecap="round" stroke-linejoin="round"/>
<path d="M99.05 172.31L98.9 224.14L44.19 192.56L44.34 140.73L99.05 172.31Z" stroke="#7479FF" stroke-width="3.68" stroke-linecap="round" stroke-linejoin="round"/>
<path d="M202.01 137.03L236.37 156.87L181.7 188.64L126.99 157.05L154.83 140.87" stroke="#7479FF" stroke-width="3.68" stroke-linecap="round" stroke-linejoin="round"/>
<path d="M236.37 156.87L236.22 208.7L181.56 240.47L181.7 188.64L236.37 156.87Z" stroke="#7479FF" stroke-width="3.68" stroke-linecap="round" stroke-linejoin="round"/>
<path d="M181.7 188.64L181.56 240.47L126.84 208.88L126.99 157.05L181.7 188.64Z" stroke="#7479FF" stroke-width="3.68" stroke-linecap="round" stroke-linejoin="round"/>
<path d="M202.01 86.5699L176.17 101.58L99.94 57.5699L125.78 42.5599L202.01 86.5699Z" stroke="#7479FF" stroke-width="3.68" stroke-linecap="round" stroke-linejoin="round"/>
<path d="M202.01 86.5699L201.86 138.39L176.02 153.41L176.17 101.58L202.01 86.5699Z" stroke="#7479FF" stroke-width="3.68" stroke-linecap="round" stroke-linejoin="round"/>
<path d="M176.17 101.58L176.02 153.41L99.79 109.4L99.94 57.5699L176.17 101.58Z" stroke="#7479FF" stroke-width="3.68" stroke-linecap="round" stroke-linejoin="round"/>
<path d="M126.84 208.88L98.9 224.14" stroke="#7479FF" stroke-width="3.68" stroke-linecap="round" stroke-linejoin="round"/>
<path d="M106.31 123.17V125C106.257 124.44 106.056 123.903 105.727 123.446C105.399 122.989 104.954 122.628 104.44 122.4C103.054 121.659 101.501 121.287 99.93 121.32C98.3648 121.283 96.8172 121.656 95.44 122.4C94.9268 122.628 94.4842 122.989 94.1588 123.446C93.8333 123.904 93.6368 124.44 93.59 125V123.22C93.6389 122.661 93.8361 122.125 94.1614 121.668C94.4866 121.211 94.928 120.849 95.44 120.62C96.8337 119.91 98.3757 119.539 99.94 119.539C101.504 119.539 103.046 119.91 104.44 120.62C104.946 120.847 105.384 121.201 105.712 121.648C106.04 122.095 106.246 122.619 106.31 123.17V123.17Z" fill="#7479FF"/>
<path d="M106.3 125C106.256 125.561 106.061 126.101 105.735 126.56C105.409 127.02 104.965 127.382 104.45 127.61V125.83C104.963 125.599 105.404 125.235 105.73 124.776C106.055 124.318 106.252 123.78 106.3 123.22C106.31 123.71 106.3 124.42 106.3 125Z" fill="#0B0E12"/>
<path d="M93.58 125V123.23C93.6367 123.79 93.8404 124.326 94.1706 124.783C94.5007 125.239 94.9454 125.6 95.46 125.83V127.61C94.9429 127.381 94.4961 127.019 94.1656 126.56C93.8352 126.101 93.633 125.563 93.58 125V125Z" fill="#0B0E12"/>
<path d="M105.46 126.36V128.14L104.45 127.56L104.46 125.78L105.46 126.36Z" fill="#0B0E12"/>
<path d="M105.46 126.36V128.14L104.45 127.56L104.46 125.78L105.46 126.36Z" fill="#7479FF"/>
<path d="M104.45 127.56C103.07 128.297 101.524 128.668 99.96 128.64C99.96 128.05 99.96 127.45 99.96 126.86C101.524 126.891 103.071 126.519 104.45 125.78V127.56Z" fill="#0B0E12"/>
<path d="M100 128.64C98.433 128.665 96.885 128.293 95.5 127.56V125.78C96.8864 126.519 98.4391 126.891 100.01 126.86C100 127.45 100 128.05 100 128.64Z" fill="#0B0E12"/>
<path d="M106.47 126.94V128.72L105.46 128.14V126.36L106.47 126.94Z" fill="#7479FF"/>
<path d="M109.14 123.2V125C109.14 126.35 108.25 127.7 106.47 128.74V126.96C108.25 125.91 109.14 124.56 109.14 123.2Z" fill="#7479FF"/>
<path d="M90.74 124.93V123.15C90.74 124.52 91.64 125.89 93.45 126.94C95.4637 127.964 97.6909 128.498 99.95 128.498C102.209 128.498 104.436 127.964 106.45 126.94V128.72C104.436 129.744 102.209 130.278 99.95 130.278C97.6909 130.278 95.4637 129.744 93.45 128.72C91.64 127.67 90.74 126.3 90.74 124.93Z" fill="#7479FF"/>
<path d="M106.43 119.41C110.03 121.49 110.05 124.86 106.43 126.94L105.43 126.36L104.43 125.78C104.943 125.549 105.384 125.185 105.71 124.726C106.035 124.268 106.232 123.73 106.28 123.17C106.223 122.609 106.019 122.074 105.689 121.617C105.359 121.161 104.914 120.799 104.4 120.57C103.006 119.86 101.464 119.489 99.9 119.489C98.3357 119.489 96.7937 119.86 95.4 120.57C94.888 120.799 94.4466 121.161 94.1214 121.618C93.7962 122.075 93.5989 122.611 93.55 123.17C93.6051 123.732 93.808 124.27 94.1382 124.728C94.4684 125.187 94.9141 125.55 95.43 125.78C96.8237 126.49 98.3657 126.861 99.93 126.861C101.494 126.861 103.036 126.49 104.43 125.78L105.43 126.36L106.43 126.94C104.416 127.964 102.189 128.498 99.93 128.498C97.6709 128.498 95.4437 127.964 93.43 126.94C89.83 124.86 89.81 121.49 93.43 119.41C95.4423 118.381 97.67 117.845 99.93 117.845C102.19 117.845 104.418 118.381 106.43 119.41V119.41Z" fill="#7479FF"/>
<path d="M130.43 136.14V137.92C130.376 137.359 130.174 136.822 129.846 136.364C129.518 135.905 129.074 135.542 128.56 135.31C127.166 134.6 125.624 134.229 124.06 134.229C122.496 134.229 120.954 134.6 119.56 135.31C119.046 135.539 118.603 135.903 118.278 136.362C117.952 136.821 117.756 137.359 117.71 137.92V136.14C117.759 135.581 117.956 135.046 118.281 134.588C118.607 134.131 119.048 133.769 119.56 133.54C120.939 132.801 122.485 132.429 124.05 132.46C125.621 132.43 127.173 132.802 128.56 133.54C129.073 133.771 129.515 134.133 129.844 134.589C130.172 135.046 130.374 135.581 130.43 136.14Z" fill="#7479FF"/>
<path d="M130.42 137.92C130.373 138.481 130.176 139.018 129.851 139.477C129.526 139.936 129.083 140.3 128.57 140.53V138.75C129.083 138.519 129.525 138.155 129.85 137.696C130.175 137.238 130.372 136.7 130.42 136.14C130.43 136.68 130.43 137.39 130.42 137.92Z" fill="#0B0E12"/>
<path d="M119.58 140.53C119.063 140.301 118.616 139.939 118.286 139.48C117.955 139.021 117.753 138.483 117.7 137.92V136.14C117.755 136.702 117.958 137.24 118.288 137.698C118.618 138.157 119.064 138.52 119.58 138.75V140.53Z" fill="#0B0E12"/>
<path d="M129.58 139.33V141.11L128.57 140.53L128.58 138.75L129.58 139.33Z" fill="#7479FF"/>
<path d="M129.58 139.33V141.11L128.57 140.53L128.58 138.75L129.58 139.33Z" fill="#0B0E12"/>
<path d="M128.57 140.53C127.191 141.269 125.645 141.641 124.08 141.61C124.08 141.01 124.08 140.42 124.08 139.83C125.645 139.861 127.191 139.489 128.57 138.75V140.53Z" fill="#0B0E12"/>
<path d="M124.08 141.61C122.513 141.636 120.965 141.265 119.58 140.53V138.75C120.966 139.489 122.519 139.861 124.09 139.83C124.08 140.42 124.08 141 124.08 141.61Z" fill="#0B0E12"/>
<path d="M133.26 136.17V138C133.26 139.35 132.36 140.71 130.59 141.74V139.96C132.37 138.88 133.26 137.53 133.26 136.17Z" fill="#7479FF"/>
<path d="M130.59 139.91V141.69L129.58 141.11V139.33L130.59 139.91Z" fill="#7479FF"/>
<path d="M114.86 137.89V136.12C114.86 137.49 115.77 138.86 117.58 139.91C119.594 140.934 121.821 141.468 124.08 141.468C126.339 141.468 128.566 140.934 130.58 139.91V141.69C128.566 142.714 126.339 143.248 124.08 143.248C121.821 143.248 119.594 142.714 117.58 141.69C115.76 140.64 114.86 139.27 114.86 137.89Z" fill="#7479FF"/>
<path d="M130.55 132.38C134.15 134.46 134.17 137.83 130.55 139.91L129.55 139.33L128.55 138.75C129.063 138.519 129.505 138.155 129.83 137.696C130.155 137.238 130.352 136.7 130.4 136.14C130.343 135.58 130.14 135.044 129.809 134.587C129.479 134.131 129.035 133.77 128.52 133.54C127.133 132.802 125.581 132.43 124.01 132.46C122.445 132.429 120.899 132.801 119.52 133.54C119.008 133.769 118.567 134.131 118.241 134.588C117.916 135.046 117.719 135.581 117.67 136.14C117.725 136.702 117.928 137.24 118.258 137.698C118.588 138.157 119.034 138.52 119.55 138.75C120.944 139.46 122.486 139.831 124.05 139.831C125.614 139.831 127.156 139.46 128.55 138.75L129.55 139.33L130.55 139.91C128.536 140.934 126.309 141.468 124.05 141.468C121.791 141.468 119.564 140.934 117.55 139.91C113.95 137.83 113.93 134.46 117.55 132.38C119.563 131.354 121.79 130.819 124.05 130.819C126.31 130.819 128.537 131.354 130.55 132.38V132.38Z" fill="#7479FF"/>
<path d="M119.56 58.47V56.69C119.611 56.1356 119.809 55.6048 120.135 55.1529C120.46 54.701 120.9 54.3444 121.41 54.12C122.79 53.374 124.342 53.0017 125.91 53.04C127.474 53.0072 129.019 53.3755 130.4 54.11C130.917 54.3387 131.364 54.7011 131.694 55.1598C132.025 55.6186 132.227 56.1572 132.28 56.72V58.5C132.225 57.9378 132.022 57.4001 131.692 56.9417C131.362 56.4832 130.916 56.1204 130.4 55.89C129.017 55.1521 127.468 54.7803 125.9 54.81C124.335 54.778 122.789 55.15 121.41 55.89C120.901 56.1178 120.461 56.4766 120.136 56.9299C119.811 57.3832 119.612 57.9147 119.56 58.47V58.47Z" fill="#7479FF"/>
<path d="M132.28 58.5C132.232 59.0591 132.035 59.5952 131.71 60.0525C131.385 60.5098 130.943 60.8715 130.43 61.1V59.33C130.945 59.1015 131.388 58.7385 131.714 58.2792C132.039 57.8198 132.235 57.2812 132.28 56.72V58.5Z" fill="#0B0E12"/>
<path d="M121.43 61.1C120.915 60.8725 120.47 60.5115 120.141 60.0544C119.812 59.5973 119.612 59.0606 119.56 58.5V56.72C119.615 57.2823 119.818 57.8199 120.148 58.2784C120.478 58.7368 120.924 59.0996 121.44 59.33C121.43 59.92 121.43 60.51 121.43 61.1Z" fill="#0B0E12"/>
<path d="M131.44 59.91V61.68L130.43 61.1V59.33L131.44 59.91Z" fill="#7479FF"/>
<path d="M131.44 59.91V61.68L130.43 61.1V59.33L131.44 59.91Z" fill="#0B0E12"/>
<path d="M130.43 61.1C129.053 61.8443 127.505 62.2166 125.94 62.18V60.41C127.505 60.442 129.051 60.07 130.43 59.33V61.1Z" fill="#0B0E12"/>
<path d="M125.94 62.18C124.369 62.2096 122.817 61.8379 121.43 61.1C121.43 60.51 121.43 59.92 121.43 59.33C122.813 60.0679 124.362 60.4397 125.93 60.41L125.94 62.18Z" fill="#0B0E12"/>
<path d="M132.44 60.49V62.26L131.44 61.68V59.91L132.44 60.49Z" fill="#7479FF"/>
<path d="M135.12 56.74V58.52C135.12 59.88 134.23 61.23 132.45 62.26V60.49C134.22 59.45 135.11 58.1 135.12 56.74Z" fill="#7479FF"/>
<path d="M116.72 58.47V56.7C116.72 58.07 117.62 59.44 119.44 60.49C121.453 61.5155 123.681 62.0502 125.94 62.0502C128.199 62.0502 130.427 61.5155 132.44 60.49V62.2599C130.428 63.2887 128.2 63.8251 125.94 63.8251C123.68 63.8251 121.452 63.2887 119.44 62.2599C117.62 61.2199 116.71 59.84 116.72 58.47Z" fill="#7479FF"/>
<path d="M132.4 53C136.01 55.08 136.02 58.46 132.4 60.54L131.4 59.96L130.4 59.38C130.915 59.1516 131.358 58.7885 131.684 58.3292C132.009 57.8699 132.205 57.3312 132.25 56.77C132.197 56.2071 131.995 55.6685 131.664 55.2098C131.334 54.751 130.887 54.3886 130.37 54.16C129.007 53.3991 127.471 52.9998 125.91 53C124.341 52.9616 122.79 53.3339 121.41 54.08C120.897 54.3076 120.454 54.6691 120.129 55.1265C119.803 55.584 119.607 56.1205 119.56 56.68C119.615 57.2423 119.818 57.7799 120.148 58.2384C120.478 58.6968 120.924 59.0596 121.44 59.29C122.823 60.028 124.372 60.3997 125.94 60.37C127.505 60.4021 129.051 60.0301 130.43 59.29L131.43 59.87L132.43 60.45C130.417 61.4756 128.189 62.0102 125.93 62.0102C123.671 62.0102 121.443 61.4756 119.43 60.45C115.83 58.37 115.81 55 119.43 52.91C121.448 51.9072 123.673 51.3928 125.926 51.4084C128.179 51.4241 130.396 51.9693 132.4 53V53Z" fill="#7479FF"/>
<path d="M143.68 71.44V69.66C143.734 69.1078 143.933 68.5796 144.256 68.1284C144.579 67.6773 145.015 67.3191 145.52 67.09C146.913 66.3781 148.455 66.007 150.02 66.007C151.585 66.007 153.127 66.3781 154.52 67.09C155.038 67.3169 155.486 67.6788 155.817 68.1379C156.148 68.597 156.349 69.1365 156.4 69.7V71.47C156.345 70.9089 156.142 70.3724 155.812 69.9155C155.482 69.4587 155.036 69.0978 154.52 68.87C153.126 68.1597 151.584 67.7894 150.02 67.7894C148.456 67.7894 146.914 68.1597 145.52 68.87C145.015 69.0992 144.579 69.4573 144.256 69.9084C143.933 70.3596 143.734 70.8878 143.68 71.44V71.44Z" fill="#7479FF"/>
<path d="M143.68 71.47V69.7C143.69 70.23 143.68 70.94 143.68 71.47Z" fill="#0B0E12"/>
<path d="M156.4 71.47C156.352 72.0303 156.155 72.5676 155.83 73.0264C155.505 73.4852 155.063 73.8489 154.55 74.08V72.3C155.065 72.0741 155.508 71.7131 155.834 71.2553C156.16 70.7975 156.355 70.26 156.4 69.7V71.47Z" fill="#0B0E12"/>
<path d="M145.56 74.08C145.043 73.8513 144.596 73.4889 144.266 73.0302C143.935 72.5714 143.733 72.0328 143.68 71.47V69.7C143.734 70.26 143.935 70.7958 144.264 71.2525C144.592 71.7093 145.036 72.0708 145.55 72.3L145.56 74.08Z" fill="#0B0E12"/>
<path d="M155.56 72.89V74.66L154.55 74.08V72.3L155.56 72.89Z" fill="#7479FF"/>
<path d="M155.56 72.89V74.66L154.55 74.08V72.3L155.56 72.89Z" fill="#0B0E12"/>
<path d="M154.55 74.08C153.171 74.8193 151.625 75.1912 150.06 75.16C150.06 74.56 150.06 73.97 150.06 73.38C151.621 73.4122 153.165 73.0402 154.54 72.3L154.55 74.08Z" fill="#0B0E12"/>
<path d="M150.06 75.16C148.492 75.1898 146.943 74.818 145.56 74.08V72.3C146.946 73.0393 148.499 73.4111 150.07 73.38C150.07 74 150.06 74.56 150.06 75.16Z" fill="#0B0E12"/>
<path d="M156.56 73.46V75.24L155.56 74.66V72.89L156.56 73.46Z" fill="#7479FF"/>
<path d="M159.24 69.72V71.5C159.24 72.85 158.34 74.21 156.56 75.24V73.46C158.35 72.43 159.24 71.08 159.24 69.72Z" fill="#7479FF"/>
<path d="M140.84 71.45V69.67C140.84 71.04 141.74 72.42 143.55 73.46C145.563 74.4856 147.791 75.0202 150.05 75.0202C152.309 75.0202 154.537 74.4856 156.55 73.46V75.24C154.536 76.2641 152.309 76.7978 150.05 76.7978C147.791 76.7978 145.564 76.2641 143.55 75.24C141.74 74.19 140.84 72.82 140.84 71.45Z" fill="#7479FF"/>
<path d="M156.52 65.93C160.13 68.01 160.15 71.38 156.52 73.46L155.52 72.89L154.52 72.3C155.034 72.0741 155.478 71.7131 155.804 71.2553C156.13 70.7976 156.325 70.2601 156.37 69.7C156.319 69.1365 156.118 68.597 155.787 68.1379C155.456 67.6788 155.008 67.3169 154.49 67.09C153.097 66.3781 151.555 66.0069 149.99 66.0069C148.425 66.0069 146.883 66.3781 145.49 67.09C144.978 67.3207 144.537 67.6846 144.213 68.1436C143.89 68.6027 143.695 69.1401 143.65 69.7C143.704 70.2601 143.905 70.7958 144.234 71.2526C144.562 71.7094 145.006 72.0708 145.52 72.3C146.906 73.0392 148.459 73.411 150.03 73.38C151.591 73.4121 153.135 73.0401 154.51 72.3L155.51 72.89L156.51 73.46C154.497 74.4856 152.269 75.0202 150.01 75.0202C147.751 75.0202 145.523 74.4856 143.51 73.46C139.91 71.38 139.89 68.01 143.46 65.93C145.481 64.8961 147.72 64.3569 149.99 64.3569C152.261 64.3569 154.499 64.8961 156.52 65.93V65.93Z" fill="#7479FF"/>
<path d="M167.15 85.1401V83.3701C167.204 82.8153 167.404 82.2847 167.729 81.8318C168.054 81.3788 168.492 81.0195 169 80.7901C170.378 80.0491 171.926 79.6803 173.49 79.7201C175.06 79.6819 176.614 80.0505 178 80.7901C178.515 81.0201 178.96 81.3831 179.289 81.8417C179.617 82.3004 179.818 82.8382 179.87 83.4001V85.1801C179.822 84.617 179.623 84.0773 179.294 83.618C178.965 83.1586 178.518 82.7966 178 82.5701C176.606 81.8598 175.064 81.4894 173.5 81.4894C171.936 81.4894 170.394 81.8598 169 82.5701C168.492 82.7961 168.052 83.1532 167.727 83.6048C167.402 84.0563 167.203 84.5862 167.15 85.1401Z" fill="#7479FF"/>
<path d="M179.86 85.18C179.815 85.7387 179.621 86.275 179.297 86.7325C178.973 87.19 178.532 87.5519 178.02 87.78V86C178.529 85.7684 178.968 85.4056 179.292 84.9488C179.615 84.492 179.811 83.9575 179.86 83.4C179.87 83.93 179.86 84.64 179.86 85.18Z" fill="#0B0E12"/>
<path d="M169 87.78C168.486 87.5508 168.042 87.1894 167.714 86.7326C167.385 86.2758 167.184 85.7401 167.13 85.18V83.4C167.182 83.9607 167.382 84.4974 167.711 84.9545C168.04 85.4116 168.485 85.7726 169 86C169 86.59 169 87.19 169 87.78Z" fill="#0B0E12"/>
<path d="M179.03 86.58V88.36L178.02 87.78L178.03 86L179.03 86.58Z" fill="#7479FF"/>
<path d="M179.03 86.58V88.36L178.02 87.78L178.03 86L179.03 86.58Z" fill="#0B0E12"/>
<path d="M178 87.78C176.621 88.5192 175.075 88.8912 173.51 88.86V87.08C175.074 87.108 176.62 86.7363 178 86V87.78Z" fill="#0B0E12"/>
<path d="M173.53 88.86C171.952 88.8945 170.392 88.5225 169 87.78C169 87.19 169 86.59 169 86C170.383 86.738 171.932 87.1098 173.5 87.08V88.86H173.53Z" fill="#0B0E12"/>
<path d="M180.04 87.1601L180.03 88.9401L179.03 88.3601V86.5801L180.04 87.1601Z" fill="#7479FF"/>
<path d="M182.71 83.42V85.2C182.71 86.55 181.82 87.91 180.04 88.94V87.16C181.81 86.13 182.7 84.78 182.71 83.42Z" fill="#7479FF"/>
<path d="M164.31 85.15V83.37C164.31 84.74 165.22 86.12 167.03 87.16C169.044 88.184 171.271 88.7178 173.53 88.7178C175.789 88.7178 178.016 88.184 180.03 87.16V88.94C178.016 89.964 175.789 90.4978 173.53 90.4978C171.271 90.4978 169.044 89.964 167.03 88.94C165.21 87.89 164.3 86.52 164.31 85.15Z" fill="#7479FF"/>
<path d="M180 79.63C183.61 81.71 183.62 85.08 180 87.16L179 86.58L178 86C178.54 85.811 179.008 85.4587 179.339 84.992C179.67 84.5253 179.848 83.9672 179.848 83.395C179.848 82.8228 179.67 82.2647 179.339 81.798C179.008 81.3313 178.54 80.9791 178 80.79C176.614 80.0505 175.06 79.6819 173.49 79.72C171.926 79.6803 170.378 80.0491 169 80.79C168.455 80.9743 167.982 81.3247 167.647 81.792C167.311 82.2593 167.131 82.8199 167.131 83.395C167.131 83.9701 167.311 84.5308 167.647 84.998C167.982 85.4653 168.455 85.8158 169 86C170.394 86.7096 171.936 87.0794 173.5 87.0794C175.064 87.0794 176.606 86.7096 178 86L179 86.58L180 87.16C177.986 88.184 175.759 88.7178 173.5 88.7178C171.241 88.7178 169.014 88.184 167 87.16C163.4 85.08 163.37 81.71 167 79.63C169.013 78.6045 171.241 78.0698 173.5 78.0698C175.759 78.0698 177.987 78.6045 180 79.63V79.63Z" fill="#7479FF"/>
<path d="M85.02 26.67L61.67 40.24L38.16 26.66L61.51 13.09L85.02 26.67Z" stroke="#7479FF" stroke-width="3.68" stroke-linecap="round" stroke-linejoin="round"/>
<path d="M85.02 26.6699L84.88 78.4999L61.52 92.0699L61.67 40.2399L85.02 26.6699Z" stroke="#7479FF" stroke-width="3.68" stroke-linecap="round" stroke-linejoin="round"/>
<path d="M61.67 40.2399L61.52 92.0699L38.01 78.4899L38.16 26.6599L61.67 40.2399Z" stroke="#7479FF" stroke-width="3.68" stroke-linecap="round" stroke-linejoin="round"/>
<path d="M67.89 20.5599V22.3299C67.8343 21.7677 67.6299 21.2305 67.2977 20.7735C66.9655 20.3166 66.5176 19.9563 66 19.7299C64.6167 18.9919 63.0676 18.6201 61.5 18.6499C59.932 18.6161 58.3819 18.9881 57 19.7299C56.4856 19.9557 56.0419 20.3167 55.7161 20.7745C55.3904 21.2323 55.1948 21.7698 55.15 22.3299V20.5599C55.2067 20.0084 55.4075 19.4815 55.7322 19.0322C56.057 18.5828 56.4942 18.2268 57 17.9999C58.3792 17.2607 59.9255 16.8887 61.49 16.9199C63.0608 16.8902 64.6131 17.2619 66 17.9999C66.511 18.2247 66.9542 18.5792 67.2858 19.0283C67.6173 19.4774 67.8256 20.0054 67.89 20.5599V20.5599Z" fill="#7479FF"/>
<path d="M67.88 22.3299C67.8311 22.8941 67.6305 23.4345 67.2996 23.8939C66.9686 24.3534 66.5196 24.7148 66 24.9399V23.1599C66.5119 22.9306 66.9534 22.5686 67.2786 22.1115C67.6038 21.6544 67.8011 21.1188 67.85 20.5599C67.89 21.0899 67.88 21.7999 67.88 22.3299Z" fill="#0B0E12"/>
<path d="M57 24.9399C56.4835 24.7117 56.0377 24.3491 55.7088 23.8901C55.3799 23.4311 55.1801 22.8924 55.13 22.3299V20.5599C55.1858 21.1194 55.3881 21.6543 55.7163 22.1107C56.0446 22.5671 56.4874 22.929 57 23.1599C57 23.7599 57 24.3499 57 24.9399Z" fill="#0B0E12"/>
<path d="M67.04 23.7399V25.5199L66.03 24.9399L66.04 23.1599L67.04 23.7399Z" fill="#7479FF"/>
<path d="M67.04 23.7399V25.5199L66.03 24.9399L66.04 23.1599L67.04 23.7399Z" fill="#0B0E12"/>
<path d="M66 24.9399C64.6279 25.6672 63.0927 26.0321 61.54 25.9999C61.54 25.4099 61.54 24.8199 61.54 24.2199C63.0933 24.2575 64.6298 23.8923 66 23.1599C66 23.6999 66 24.4099 66 24.9399Z" fill="#0B0E12"/>
<path d="M61.54 25.9999C59.9609 26.0409 58.3977 25.6759 57 24.9399C57 24.3499 57 23.7599 57 23.1599C58.3847 23.9038 59.9386 24.2759 61.51 24.2399C61.54 24.8399 61.54 25.4299 61.54 25.9999Z" fill="#0B0E12"/>
<path d="M70.72 20.58V22.36C70.72 23.72 69.82 25.07 68.04 26.1V24.32C69.83 23.29 70.72 21.94 70.72 20.58Z" fill="#7479FF"/>
<path d="M68.05 24.32V26.1L67.04 25.52V23.74L68.05 24.32Z" fill="#7479FF"/>
<path d="M52.32 22.3099V20.5299C52.32 21.8999 53.23 23.2799 55.04 24.3199C57.053 25.3463 59.2805 25.8813 61.54 25.8813C63.7996 25.8813 66.027 25.3463 68.04 24.3199V26.0999C66.0268 27.1255 63.7994 27.6601 61.54 27.6601C59.2806 27.6601 57.0533 27.1255 55.04 26.0999C53.22 25.0499 52.32 23.6799 52.32 22.3099Z" fill="#7479FF"/>
<path d="M68 16.7899C71.6 18.8699 71.62 22.2499 68 24.3199L67 23.7399L66 23.1599C66.512 22.9306 66.9534 22.5686 67.2786 22.1115C67.6038 21.6544 67.8011 21.1188 67.85 20.5599C67.7894 20.0097 67.5871 19.4845 67.2629 19.0358C66.9386 18.5871 66.5035 18.2302 66 17.9999C64.6131 17.262 63.0608 16.8903 61.49 16.9199C59.9255 16.8888 58.3792 17.2607 57 17.9999C56.4873 18.231 56.0455 18.5947 55.7203 19.0535C55.3951 19.5123 55.1982 20.0496 55.15 20.6099C55.2122 21.1585 55.4153 21.6815 55.7395 22.1284C56.0636 22.5752 56.4979 22.9306 57 23.1599C58.3937 23.8703 59.9357 24.2406 61.5 24.2406C63.0643 24.2406 64.6063 23.8703 66 23.1599L67 23.7399L68 24.3199C65.987 25.3463 63.7596 25.8814 61.5 25.8814C59.2405 25.8814 57.013 25.3463 55 24.3199C51.39 22.2399 51.38 18.8699 55 16.7899C57.0137 15.7659 59.2409 15.2322 61.5 15.2322C63.7591 15.2322 65.9863 15.7659 68 16.7899V16.7899Z" fill="#7479FF"/>
<path d="M83.61 138.74V140.51C83.5513 139.95 83.3468 139.415 83.0169 138.959C82.687 138.503 82.2433 138.141 81.73 137.91C80.3448 137.167 78.7913 136.795 77.22 136.83C75.6549 136.793 74.1073 137.166 72.73 137.91C72.2181 138.139 71.7767 138.501 71.4514 138.958C71.1262 139.415 70.9289 139.951 70.88 140.51V138.74C70.9303 138.18 71.1279 137.644 71.4529 137.185C71.7779 136.727 72.2185 136.363 72.73 136.13C74.1237 135.42 75.6657 135.049 77.23 135.049C78.7943 135.049 80.3363 135.42 81.73 136.13C82.2459 136.36 82.6916 136.723 83.0218 137.182C83.352 137.64 83.5549 138.178 83.61 138.74Z" fill="#7479FF"/>
<path d="M83.61 140.51C83.5618 141.07 83.3649 141.607 83.0397 142.066C82.7145 142.525 82.2727 142.889 81.76 143.12V141.34C82.2732 141.112 82.7157 140.751 83.0412 140.293C83.3667 139.836 83.5632 139.299 83.61 138.74V140.51Z" fill="#0B0E12"/>
<path d="M72.76 143.12C72.2435 142.89 71.7973 142.528 71.467 142.069C71.1366 141.611 70.9341 141.072 70.88 140.51V138.74C70.9387 139.3 71.1432 139.834 71.4731 140.291C71.803 140.747 72.2467 141.109 72.76 141.34V143.12Z" fill="#0B0E12"/>
<path d="M82.76 141.92V143.7L81.76 143.12V141.34L82.76 141.92Z" fill="#0B0E12"/>
<path d="M82.76 141.92V143.7L81.76 143.12V141.34L82.76 141.92Z" fill="#7479FF"/>
<path d="M81.76 143.12C80.3777 143.86 78.8279 144.232 77.26 144.2C77.26 143.61 77.26 143.01 77.26 142.42C78.8245 142.451 80.3708 142.079 81.75 141.34L81.76 143.12Z" fill="#0B0E12"/>
<path d="M77.26 144.2C75.6926 144.228 74.1438 143.857 72.76 143.12V141.34C74.1469 142.078 75.6993 142.45 77.27 142.42C77.27 143 77.27 143.61 77.26 144.2Z" fill="#0B0E12"/>
<path d="M86.45 138.76V140.54C86.45 141.89 85.56 143.25 83.78 144.28V142.5C85.55 141.47 86.44 140.12 86.45 138.76Z" fill="#7479FF"/>
<path d="M83.77 142.5V144.28L82.76 143.7V141.92L83.77 142.5Z" fill="#7479FF"/>
<path d="M68 140.49V138.71C68 140.08 68.9 141.46 70.71 142.5C72.7237 143.524 74.9509 144.058 77.21 144.058C79.4691 144.058 81.6963 143.524 83.71 142.5V144.28C81.6963 145.304 79.4691 145.838 77.21 145.838C74.9509 145.838 72.7237 145.304 70.71 144.28C69 143.23 68 141.86 68 140.49Z" fill="#7479FF"/>
<path d="M83.73 135C87.33 137.08 87.36 140.45 83.73 142.53L82.73 141.95L81.73 141.37C82.2432 141.142 82.6857 140.781 83.0112 140.323C83.3367 139.866 83.5332 139.329 83.58 138.77C83.525 138.208 83.322 137.67 82.9918 137.212C82.6616 136.753 82.2159 136.39 81.7 136.16C80.3063 135.45 78.7643 135.079 77.2 135.079C75.6358 135.079 74.0937 135.45 72.7 136.16C72.1885 136.393 71.7479 136.757 71.4229 137.215C71.0979 137.674 70.9003 138.21 70.85 138.77C70.9088 139.33 71.1133 139.865 71.4431 140.321C71.773 140.777 72.2167 141.139 72.73 141.37C74.1169 142.108 75.6693 142.48 77.24 142.45C78.8046 142.481 80.3508 142.109 81.73 141.37L82.73 141.95L83.73 142.53C81.7163 143.554 79.4892 144.088 77.23 144.088C74.9709 144.088 72.7437 143.554 70.73 142.53C67.13 140.45 67.11 137.08 70.73 135C72.7437 133.976 74.9709 133.442 77.23 133.442C79.4892 133.442 81.7163 133.976 83.73 135V135Z" fill="#7479FF"/>
<path d="M107.73 151.7V153.48C107.673 152.919 107.47 152.384 107.139 151.927C106.809 151.471 106.365 151.11 105.85 150.88C104.465 150.137 102.911 149.765 101.34 149.8C99.7749 149.763 98.2273 150.136 96.85 150.88C96.3374 151.109 95.8955 151.47 95.5701 151.927C95.2447 152.385 95.0479 152.921 95 153.48V151.7C95.0489 151.141 95.2462 150.606 95.5714 150.148C95.8966 149.691 96.3381 149.329 96.85 149.1C98.2437 148.39 99.7857 148.019 101.35 148.019C102.914 148.019 104.456 148.39 105.85 149.1C106.365 149.33 106.809 149.691 107.139 150.147C107.47 150.604 107.673 151.139 107.73 151.7V151.7Z" fill="#7479FF"/>
<path d="M107.73 153.48C107.682 154.04 107.485 154.578 107.16 155.036C106.834 155.495 106.393 155.859 105.88 156.09V154.31C106.393 154.079 106.834 153.715 107.16 153.256C107.485 152.798 107.682 152.26 107.73 151.7V153.48Z" fill="#0B0E12"/>
<path d="M96.88 156.09C96.3629 155.861 95.9161 155.499 95.5857 155.04C95.2552 154.581 95.0531 154.043 95 153.48V151.7C95.0551 152.262 95.258 152.8 95.5882 153.258C95.9184 153.717 96.3641 154.08 96.88 154.31V156.09Z" fill="#0B0E12"/>
<path d="M106.88 154.89V156.67L105.88 156.09V154.31L106.88 154.89Z" fill="#7479FF"/>
<path d="M106.88 154.89V156.67L105.88 156.09V154.31L106.88 154.89Z" fill="#0B0E12"/>
<path d="M105.88 156.09C104.495 156.825 102.947 157.196 101.38 157.17C101.38 156.58 101.38 155.98 101.38 155.39C102.945 155.421 104.491 155.049 105.87 154.31L105.88 156.09Z" fill="#0B0E12"/>
<path d="M101.38 157.17C99.813 157.195 98.265 156.823 96.88 156.09V154.31C98.2665 155.049 99.8191 155.421 101.39 155.39C101.39 156 101.39 156.58 101.38 157.17Z" fill="#0B0E12"/>
<path d="M110.56 151.73V153.51C110.56 154.86 109.66 156.22 107.89 157.25V155.47C109.67 154.44 110.56 153.09 110.56 151.73Z" fill="#7479FF"/>
<path d="M107.89 155.47V157.25L106.88 156.67V154.89L107.89 155.47Z" fill="#7479FF"/>
<path d="M92.16 153.46V151.68C92.16 153.05 93.06 154.42 94.87 155.47C96.8837 156.494 99.1109 157.028 101.37 157.028C103.629 157.028 105.856 156.494 107.87 155.47V157.25C105.856 158.274 103.629 158.808 101.37 158.808C99.1109 158.808 96.8837 158.274 94.87 157.25C93.06 156.2 92.16 154.83 92.16 153.46Z" fill="#7479FF"/>
<path d="M107.85 147.94C111.45 150.02 111.47 153.39 107.85 155.47L106.85 154.89L105.85 154.31C106.363 154.079 106.805 153.715 107.13 153.256C107.455 152.798 107.652 152.26 107.7 151.7C107.643 151.139 107.44 150.604 107.109 150.147C106.779 149.691 106.335 149.33 105.82 149.1C104.426 148.39 102.884 148.021 101.32 148.021C99.7559 148.021 98.214 148.39 96.8201 149.1C96.3137 149.334 95.8784 149.697 95.5587 150.154C95.2389 150.611 95.0462 151.144 95.0001 151.7C95.0551 152.262 95.2581 152.8 95.5883 153.258C95.9185 153.717 96.3642 154.08 96.8801 154.31C98.2737 155.02 99.8158 155.391 101.38 155.391C102.944 155.391 104.486 155.02 105.88 154.31L106.88 154.89L107.88 155.47C105.866 156.494 103.639 157.028 101.38 157.028C99.1209 157.028 96.8938 156.494 94.8801 155.47C91.2801 153.39 91.2601 150.02 94.8801 147.94C96.8892 146.919 99.1112 146.386 101.365 146.386C103.619 146.386 105.841 146.919 107.85 147.94V147.94Z" fill="#7479FF"/>
<path d="M210 154.17V156C209.945 155.438 209.742 154.9 209.412 154.442C209.082 153.983 208.636 153.62 208.12 153.39C206.726 152.68 205.184 152.31 203.62 152.31C202.056 152.31 200.514 152.68 199.12 153.39C198.61 153.624 198.17 153.989 197.845 154.447C197.521 154.905 197.322 155.441 197.27 156V154.22C197.318 153.66 197.515 153.122 197.84 152.663C198.166 152.205 198.607 151.841 199.12 151.61C200.499 150.871 202.045 150.499 203.61 150.53C205.181 150.5 206.733 150.872 208.12 151.61C208.628 151.838 209.068 152.193 209.398 152.642C209.727 153.091 209.935 153.617 210 154.17V154.17Z" fill="#7479FF"/>
<path d="M197.27 156V154.22C197.28 154.76 197.28 155.36 197.27 156Z" fill="#0B0E12"/>
<path d="M210 156C209.955 156.56 209.76 157.098 209.434 157.555C209.108 158.013 208.664 158.374 208.15 158.6V156.83C208.662 156.597 209.102 156.233 209.427 155.775C209.752 155.316 209.95 154.78 210 154.22C210 154.7 210 155.41 210 156Z" fill="#0B0E12"/>
<path d="M199.15 158.55C198.636 158.32 198.191 157.959 197.861 157.503C197.531 157.046 197.327 156.51 197.27 155.95C197.27 155.36 197.27 154.76 197.27 154.17C197.327 154.732 197.531 155.268 197.861 155.726C198.191 156.185 198.635 156.548 199.15 156.78C199.16 157.37 199.16 158 199.15 158.55Z" fill="#0B0E12"/>
<path d="M209.16 157.36V159.13L208.15 158.55L208.16 156.78L209.16 157.36Z" fill="#7479FF"/>
<path d="M209.16 157.36V159.13L208.15 158.55L208.16 156.78L209.16 157.36Z" fill="#0B0E12"/>
<path d="M208.15 158.55C206.771 159.29 205.225 159.662 203.66 159.63V157.86C205.227 157.887 206.776 157.516 208.16 156.78L208.15 158.55Z" fill="#0B0E12"/>
<path d="M203.66 159.63C202.089 159.661 200.536 159.289 199.15 158.55C199.15 157.96 199.15 157.37 199.15 156.78C200.535 157.515 202.083 157.886 203.65 157.86L203.66 159.63Z" fill="#0B0E12"/>
<path d="M210.17 157.94L210.16 159.72L209.16 159.13V157.36L210.17 157.94Z" fill="#7479FF"/>
<path d="M212.84 154.2V156C212.84 157.36 211.94 158.71 210.16 159.75V157.97C212 156.9 212.84 155.55 212.84 154.2Z" fill="#7479FF"/>
<path d="M194.44 155.92V154.15C194.44 155.52 195.34 156.89 197.15 157.94C199.164 158.964 201.391 159.498 203.65 159.498C205.909 159.498 208.136 158.964 210.15 157.94V159.72C208.135 160.741 205.909 161.273 203.65 161.273C201.391 161.273 199.165 160.741 197.15 159.72C195.34 158.67 194.44 157.29 194.44 155.92Z" fill="#7479FF"/>
<path d="M210.13 150.4C213.73 152.48 213.75 155.86 210.13 157.94L209.13 157.36L208.13 156.78C208.641 156.547 209.082 156.183 209.407 155.725C209.732 155.266 209.93 154.73 209.98 154.17C209.923 153.608 209.719 153.071 209.389 152.613C209.059 152.155 208.615 151.792 208.1 151.56C206.713 150.822 205.161 150.45 203.59 150.48C202.025 150.449 200.479 150.821 199.1 151.56C198.587 151.791 198.146 152.155 197.82 152.614C197.495 153.072 197.298 153.61 197.25 154.17C197.307 154.732 197.511 155.268 197.841 155.726C198.171 156.185 198.615 156.548 199.13 156.78C200.524 157.49 202.066 157.861 203.63 157.861C205.194 157.861 206.736 157.49 208.13 156.78L209.13 157.36L210.13 157.94C208.116 158.964 205.889 159.498 203.63 159.498C201.371 159.498 199.144 158.964 197.13 157.94C193.52 155.86 193.51 152.48 197.13 150.4C199.144 149.376 201.371 148.842 203.63 148.842C205.889 148.842 208.116 149.376 210.13 150.4V150.4Z" fill="#7479FF"/>
<path d="M163.19 156.75V158.53C163.136 157.969 162.934 157.432 162.606 156.973C162.278 156.515 161.834 156.152 161.32 155.92C159.926 155.21 158.384 154.839 156.82 154.839C155.256 154.839 153.714 155.21 152.32 155.92C151.806 156.149 151.363 156.512 151.038 156.972C150.712 157.431 150.516 157.969 150.47 158.53V156.75C150.519 156.191 150.716 155.655 151.041 155.198C151.367 154.741 151.808 154.379 152.32 154.15C153.699 153.411 155.245 153.039 156.81 153.07C158.381 153.04 159.933 153.412 161.32 154.15C161.833 154.381 162.275 154.743 162.604 155.199C162.932 155.656 163.134 156.19 163.19 156.75V156.75Z" fill="#7479FF"/>
<path d="M163.18 158.53C163.132 159.09 162.935 159.627 162.61 160.086C162.284 160.545 161.843 160.909 161.33 161.14V159.36C161.843 159.129 162.284 158.765 162.61 158.306C162.935 157.847 163.132 157.31 163.18 156.75C163.19 157.29 163.19 158 163.18 158.53Z" fill="#0B0E12"/>
<path d="M152.34 161.14C151.823 160.911 151.376 160.549 151.046 160.09C150.715 159.631 150.513 159.093 150.46 158.53V156.75C150.515 157.312 150.718 157.85 151.048 158.308C151.378 158.767 151.824 159.13 152.34 159.36V161.14Z" fill="#0B0E12"/>
<path d="M162.34 159.94V161.72L161.34 161.14V159.36L162.34 159.94Z" fill="#7479FF"/>
<path d="M162.34 159.94V161.72L161.34 161.14V159.36L162.34 159.94Z" fill="#0B0E12"/>
<path d="M161.33 161.14C159.951 161.879 158.405 162.251 156.84 162.22C156.84 161.62 156.84 161.03 156.84 160.44C158.405 160.471 159.951 160.099 161.33 159.36V161.14Z" fill="#0B0E12"/>
<path d="M156.84 162.22C155.273 162.245 153.725 161.873 152.34 161.14V159.36C153.726 160.099 155.279 160.471 156.85 160.44C156.84 161 156.84 161.62 156.84 162.22Z" fill="#0B0E12"/>
<path d="M166 156.78V158.56C166 159.91 165.1 161.27 163.33 162.3V160.52C165.13 159.49 166 158.14 166 156.78Z" fill="#7479FF"/>
<path d="M163.35 160.52V162.3L162.34 161.72V159.94L163.35 160.52Z" fill="#7479FF"/>
<path d="M147.62 158.5V156.73C147.62 158.1 148.53 159.47 150.34 160.52C152.354 161.544 154.581 162.078 156.84 162.078C159.099 162.078 161.326 161.544 163.34 160.52V162.3C161.326 163.324 159.099 163.858 156.84 163.858C154.581 163.858 152.354 163.324 150.34 162.3C148.52 161.25 147.62 159.88 147.62 158.5Z" fill="#7479FF"/>
<path d="M163.31 153C166.91 155.08 166.93 158.45 163.31 160.53L162.31 159.95L161.31 159.37C161.823 159.139 162.264 158.775 162.59 158.316C162.915 157.858 163.112 157.32 163.16 156.76C163.103 156.199 162.899 155.664 162.569 155.207C162.239 154.751 161.794 154.389 161.28 154.16C159.893 153.422 158.341 153.05 156.77 153.08C155.205 153.049 153.659 153.421 152.28 154.16C151.768 154.389 151.327 154.751 151.001 155.208C150.676 155.665 150.479 156.201 150.43 156.76C150.485 157.322 150.688 157.86 151.018 158.318C151.348 158.777 151.794 159.14 152.31 159.37C153.704 160.08 155.246 160.451 156.81 160.451C158.374 160.451 159.916 160.08 161.31 159.37L162.31 159.95L163.31 160.53C161.296 161.554 159.069 162.088 156.81 162.088C154.551 162.088 152.324 161.554 150.31 160.53C146.71 158.45 146.69 155.08 150.31 153C152.323 151.974 154.55 151.438 156.81 151.438C159.07 151.438 161.297 151.974 163.31 153V153Z" fill="#7479FF"/>
<path d="M187.31 169.73V171.51C187.256 170.949 187.054 170.412 186.726 169.953C186.398 169.495 185.954 169.132 185.44 168.9C184.053 168.163 182.501 167.792 180.93 167.82C179.365 167.789 177.819 168.161 176.44 168.9C175.927 169.131 175.485 169.495 175.16 169.954C174.835 170.412 174.638 170.95 174.59 171.51V169.73C174.637 169.17 174.833 168.634 175.159 168.176C175.484 167.719 175.927 167.358 176.44 167.13C177.834 166.42 179.376 166.049 180.94 166.049C182.504 166.049 184.046 166.42 185.44 167.13C185.954 167.359 186.398 167.721 186.726 168.177C187.055 168.634 187.256 169.17 187.31 169.73Z" fill="#7479FF"/>
<path d="M187.3 171.51C187.255 172.07 187.06 172.608 186.734 173.065C186.408 173.523 185.964 173.884 185.45 174.11V172.34C185.963 172.109 186.404 171.745 186.73 171.286C187.055 170.828 187.252 170.29 187.3 169.73C187.31 170.26 187.3 171 187.3 171.51Z" fill="#0B0E12"/>
<path d="M176.46 174.11C175.943 173.884 175.496 173.524 175.165 173.066C174.835 172.609 174.633 172.072 174.58 171.51V169.73C174.635 170.292 174.838 170.83 175.168 171.288C175.498 171.747 175.944 172.11 176.46 172.34V174.11Z" fill="#0B0E12"/>
<path d="M186.46 172.92V174.69L185.46 174.12V172.34L186.46 172.92Z" fill="#7479FF"/>
<path d="M186.46 172.92V174.69L185.46 174.12V172.34L186.46 172.92Z" fill="#0B0E12"/>
<path d="M185.45 174.11C184.072 174.851 182.525 175.223 180.96 175.19C180.96 174.6 180.96 174.01 180.96 173.42C182.524 173.446 184.069 173.075 185.45 172.34C185.46 172.87 185.46 173.58 185.45 174.11Z" fill="#0B0E12"/>
<path d="M181 175.19C179.432 175.225 177.882 174.853 176.5 174.11V172.34C177.888 173.075 179.44 173.446 181.01 173.42C181 174 181 174.6 181 175.19Z" fill="#0B0E12"/>
<path d="M190.14 169.76V171.54C190.14 172.89 189.25 174.24 187.47 175.28V173.5C189.25 172.46 190.14 171.11 190.14 169.76Z" fill="#7479FF"/>
<path d="M187.47 173.5V175.28L186.46 174.69V172.92L187.47 173.5Z" fill="#7479FF"/>
<path d="M171.74 171.48V169.71C171.74 171.08 172.64 172.45 174.45 173.5C176.464 174.524 178.691 175.058 180.95 175.058C183.209 175.058 185.436 174.524 187.45 173.5V175.28C185.436 176.304 183.209 176.838 180.95 176.838C178.691 176.838 176.464 176.304 174.45 175.28C172.64 174.23 171.74 172.85 171.74 171.48Z" fill="#7479FF"/>
<path d="M187.43 166C191.03 168.08 191.05 171.46 187.43 173.54L186.43 172.96L185.43 172.38C185.975 172.196 186.448 171.845 186.783 171.378C187.119 170.911 187.299 170.35 187.299 169.775C187.299 169.2 187.119 168.639 186.783 168.172C186.448 167.705 185.975 167.354 185.43 167.17C184.036 166.46 182.494 166.089 180.93 166.089C179.366 166.089 177.824 166.46 176.43 167.17C175.917 167.398 175.474 167.759 175.149 168.217C174.823 168.674 174.627 169.211 174.58 169.77C174.635 170.332 174.838 170.87 175.168 171.328C175.498 171.787 175.944 172.15 176.46 172.38C177.854 173.09 179.396 173.461 180.96 173.461C182.524 173.461 184.066 173.09 185.46 172.38L186.46 172.96L187.46 173.54C185.446 174.564 183.219 175.098 180.96 175.098C178.701 175.098 176.474 174.564 174.46 173.54C170.86 171.46 170.84 168.08 174.46 166C176.47 164.981 178.692 164.45 180.945 164.45C183.198 164.45 185.42 164.981 187.43 166V166Z" fill="#7479FF"/>
</g>
<defs>
<clipPath id="clip0">
<rect width="263.68" height="263.68" fill="white"/>
</clipPath>
</defs>
</svg>
