<svg width="263" height="263" viewBox="0 0 263 263" fill="none" xmlns="http://www.w3.org/2000/svg">
<g clip-path="url(#clip0)">
<path d="M3.92001 110.55C-1.09444 141.435 5.29343 173.089 21.8928 199.612C38.4922 226.135 64.1702 245.717 94.1401 254.706C124.11 263.696 156.326 261.481 184.783 248.473C190.199 245.998 195.408 243.163 200.381 240M31.16 49.86C50.9029 25.586 78.7993 9.31976 109.649 4.09368C140.499 -1.1324 172.196 5.0383 198.832 21.4554C225.468 37.8726 245.225 63.4158 254.421 93.3233C262.923 120.979 261.858 150.622 251.518 177.5" stroke="#0CCDCF" stroke-width="4.56" stroke-miterlimit="10" stroke-linecap="round"/>
<path d="M106.23 47.7999L57 76.4076M168.43 57.2399L208.9 80.5999C212.35 82.5899 213.95 85.2499 213.72 87.8599C213.73 87.7068 213.73 87.5531 213.72 87.3999L213.483 170.5M44.8839 128L44.75 174.9C44.75 177.36 46.36 179.82 49.61 181.7L117.74 221C124.18 224.72 134.64 224.72 141.05 221L196.5 188.774" stroke="#7479FF" stroke-width="3.39" stroke-miterlimit="10"/>
<path d="M167.24 72.27L188.94 84.8C189.083 84.8793 189.217 84.9731 189.34 85.08C189.431 85.1376 189.518 85.2011 189.6 85.27C189.695 85.3617 189.785 85.4585 189.87 85.56C189.87 85.63 189.99 85.69 190.03 85.76C190.104 85.8691 190.164 85.9866 190.21 86.11C190.246 86.1633 190.276 86.2203 190.3 86.28C190.3 86.28 190.3 86.37 190.3 86.42C190.198 86.7559 190.03 87.0683 189.807 87.3394C189.584 87.6105 189.31 87.835 189 88L132.86 120.63C131.785 121.172 130.599 121.455 129.395 121.455C128.191 121.455 127.005 121.172 125.93 120.63L69.39 88C69.061 87.8376 68.7683 87.6104 68.5294 87.332C68.2906 87.0536 68.1105 86.7298 68 86.38C68 86.38 68 86.3 68 86.26V86.17C68.0546 86.0341 68.1216 85.9036 68.2 85.78L68.29 85.65C68.3886 85.5293 68.4955 85.4157 68.61 85.31C68.6381 85.2718 68.6718 85.2381 68.71 85.21C68.8913 85.0495 69.0891 84.9087 69.3 84.79L94.6 70.08" stroke="#7479FF" stroke-width="3.39" stroke-miterlimit="10"/>
<path d="M168.29 63L203.78 83.49C207.41 85.58 207.42 88.99 203.78 91.09L136.14 130.4C134.107 131.431 131.859 131.968 129.58 131.968C127.301 131.968 125.053 131.431 123.02 130.4L59 93.4393M100.2 57.23L59 81.2117" stroke="#7479FF" stroke-width="3.39" stroke-miterlimit="10"/>
<path d="M95.74 189.44C96.3252 189.801 96.9855 190.024 97.67 190.09C98.0728 190.115 98.4737 190.017 98.82 189.81L99.45 189.44C99.5869 189.361 99.7144 189.268 99.83 189.16C100.318 188.66 100.663 188.038 100.83 187.36C101.087 186.344 101.204 185.298 101.18 184.25C101.259 182.066 100.846 179.892 99.97 177.89C99.2309 176.278 98.0121 174.933 96.48 174.04C95.9014 173.674 95.2424 173.454 94.56 173.4C94.1693 173.375 93.7798 173.466 93.44 173.66L92.8 174.03H92.86C92.7047 174.108 92.5601 174.205 92.43 174.32C91.9347 174.811 91.5881 175.431 91.43 176.11C91.1731 177.119 91.0554 178.159 91.08 179.2C91.0152 181.355 91.4213 183.498 92.27 185.48C92.9772 187.135 94.1925 188.522 95.74 189.44V189.44ZM98.16 182.66V183.3C98.2768 184.548 98.0593 185.804 97.53 186.94L97.41 187.07C97.0565 187.088 96.7063 186.994 96.41 186.8C95.8878 186.465 95.4406 186.025 95.0964 185.509C94.7522 184.993 94.5185 184.411 94.41 183.8L98.13 182.04L98.16 182.66ZM94.65 176.58C94.6853 176.524 94.7291 176.473 94.78 176.43C95.1333 176.399 95.4866 176.491 95.78 176.69C96.2907 177.01 96.7312 177.43 97.0749 177.925C97.4186 178.42 97.6585 178.98 97.78 179.57L94.08 181.35V180.76V180.17C93.9553 178.944 94.1517 177.707 94.65 176.58V176.58Z" fill="#7479FF"/>
<path d="M67.56 128.17L67.53 136.44L65.42 135.22L64.78 135.59V137.86L72.44 142.28L73.07 141.91L73.08 139.65L70.39 138.09L70.43 125.93L68.85 125.02L64.75 126.25L64.11 126.62L65.18 128.88L67.56 128.17Z" fill="#7479FF"/>
<path d="M96.82 140.89C96.2381 140.52 95.5766 140.294 94.89 140.23C94.4957 140.215 94.1048 140.308 93.76 140.5L93.12 140.87C92.9751 140.951 92.8378 141.044 92.71 141.15C92.2185 141.643 91.8725 142.263 91.71 142.94C91.4505 143.949 91.3294 144.988 91.35 146.03C91.2863 148.188 91.6923 150.334 92.54 152.32C93.256 153.973 94.478 155.356 96.03 156.27C96.6166 156.636 97.2812 156.859 97.97 156.92C98.3684 156.946 98.7655 156.852 99.11 156.65C99.11 156.65 99.11 156.65 99.11 156.65L99.75 156.27C99.886 156.195 100.011 156.1 100.12 155.99C100.609 155.495 100.955 154.876 101.12 154.2C101.372 153.18 101.489 152.131 101.47 151.08C101.549 148.896 101.136 146.722 100.26 144.72C99.5302 143.123 98.33 141.786 96.82 140.89ZM93.82 148.54L94.45 148.17C94.45 147.97 94.45 147.78 94.45 147.59C94.45 147.4 94.45 147.2 94.45 146.99C94.3477 145.759 94.5647 144.522 95.08 143.4L95.2 143.26C95.5531 143.232 95.9052 143.324 96.2 143.52C96.7103 143.838 97.1508 144.256 97.4946 144.75C97.8383 145.243 98.0783 145.801 98.2 146.39L94.49 148.17L93.82 148.54ZM97.92 153.75C97.92 153.81 97.84 153.83 97.79 153.88C97.4367 153.911 97.0834 153.819 96.79 153.62C96.2674 153.285 95.8199 152.846 95.4756 152.329C95.1314 151.813 94.898 151.231 94.79 150.62L98.5 148.86C98.5 149.06 98.5 149.26 98.5 149.46C98.5 149.67 98.5 149.87 98.5 150.09C98.6305 151.341 98.4269 152.604 97.91 153.75H97.92Z" fill="#7479FF"/>
<path d="M69.37 174.21C69.9523 174.577 70.6141 174.8 71.3 174.86C71.7018 174.888 72.1026 174.794 72.45 174.59V174.59L73.09 174.22C73.2273 174.142 73.3548 174.048 73.47 173.94C73.9578 173.444 74.3032 172.825 74.47 172.15C74.7261 171.134 74.8439 170.088 74.82 169.04C74.9002 166.853 74.4867 164.675 73.61 162.67C72.8737 161.059 71.6539 159.716 70.12 158.83C69.5398 158.466 68.8821 158.243 68.2 158.18C67.8093 158.155 67.4198 158.246 67.08 158.44L66.44 158.81H66.5C66.3446 158.891 66.2001 158.992 66.07 159.11C65.5746 159.596 65.2277 160.214 65.07 160.89C64.8143 161.899 64.6966 162.939 64.72 163.98C64.6543 166.138 65.0605 168.285 65.91 170.27C66.6134 171.919 67.8258 173.299 69.37 174.21V174.21ZM71.79 167.44V168.07C71.9029 169.318 71.6857 170.573 71.16 171.71C71.16 171.77 71.07 171.79 71.03 171.84C70.6769 171.868 70.3248 171.776 70.03 171.58C69.5098 171.243 69.0641 170.802 68.7202 170.286C68.3762 169.771 68.1414 169.19 68.03 168.58L71.75 166.81L71.79 167.44ZM68.28 161.35C68.3179 161.295 68.3614 161.245 68.41 161.2C68.7629 161.174 69.1146 161.265 69.41 161.46C69.9207 161.78 70.3611 162.2 70.7049 162.695C71.0486 163.19 71.2885 163.75 71.41 164.34L67.71 166.12V165.54V165C67.5751 163.754 67.7717 162.495 68.28 161.35V161.35Z" fill="#7479FF"/>
<path fill-rule="evenodd" clip-rule="evenodd" d="M109.19 137.39L58 107.81L58 110L82.32 123.97L82.29 156.04L54.34 139.91L54.42 133L52.7279 132.578L52.51 169.71C52.602 171.315 53.0709 172.876 53.8788 174.266C54.6867 175.656 55.8108 176.836 57.16 177.71L108.38 207.29C109.86 208.14 111.16 208.09 112.02 207.35C111.92 207.445 111.813 207.532 111.7 207.61L112.34 207.24C112.812 206.905 113.186 206.451 113.425 205.924C113.664 205.397 113.759 204.816 113.7 204.24L113.87 145.39C113.77 143.783 113.295 142.223 112.482 140.833C111.669 139.444 110.541 138.264 109.19 137.39ZM57.79 176.08L82.19 190.17L82.26 158.13L54.33 142L54.25 170C54.3186 171.221 54.6751 172.408 55.2903 173.465C55.9056 174.521 56.7621 175.418 57.79 176.08ZM111.731 205.078C111.858 204.734 111.913 204.366 111.89 204L112 175.24L84 159.11V191.2L108.99 205.63C109.303 205.842 109.658 205.984 110.03 206.048C110.403 206.112 110.784 206.095 111.15 206C111.406 205.736 111.604 205.422 111.731 205.078ZM84.05 157.06L111.99 173.19L112.06 145.18C111.995 143.96 111.643 142.773 111.033 141.715C110.423 140.657 109.573 139.758 108.55 139.09L84.14 125L84.05 157.06Z" fill="#7479FF"/>
<path d="M190.87 169.12L188.81 170.31L188.78 158.88L188.14 158.51L186.57 159.42L182.48 165.37L183.56 166.4L184.2 166.77L185.93 164.25L185.95 171.96L183.21 173.55V175.81L183.85 176.18L191.51 171.76V169.49L190.87 169.12Z" fill="#7479FF"/>
<path d="M157.25 189.74L157.89 190.11C158.67 190.59 159.7 190.47 161 189.72C161.724 189.3 162.375 188.766 162.93 188.14C163.536 187.459 164.041 186.695 164.43 185.87C164.874 184.942 165.209 183.965 165.43 182.96C165.658 181.807 165.768 180.635 165.76 179.46C165.76 176.9 165.343 175.233 164.51 174.46C164.398 174.355 164.274 174.264 164.14 174.19V174.19L163.51 173.82C162.72 173.36 161.67 173.51 160.36 174.26C159.639 174.68 158.991 175.214 158.44 175.84C157.836 176.517 157.334 177.278 156.95 178.1C156.515 179.02 156.195 179.991 156 180.99C155.764 182.138 155.65 183.308 155.66 184.48C155.66 186.92 156.067 188.55 156.88 189.37C156.988 189.508 157.112 189.632 157.25 189.74ZM160.92 176.94C161.239 176.728 161.618 176.626 162 176.65C162.13 176.812 162.232 176.994 162.3 177.19L158.58 183.3C158.546 181.92 158.746 180.544 159.17 179.23C159.47 178.287 160.088 177.477 160.92 176.94ZM159.29 187.31C159.144 187.124 159.033 186.915 158.96 186.69L162.7 180.56C162.74 181.984 162.538 183.404 162.1 184.76C161.794 185.698 161.172 186.5 160.34 187.03C160.03 187.236 159.661 187.334 159.29 187.31ZM163.34 180.15C163.34 179.95 163.34 179.76 163.34 179.57C163.32 179.76 163.33 180 163.34 180.15ZM162.66 177.04C162.576 176.937 162.479 176.846 162.37 176.77C162.476 176.834 162.574 176.911 162.66 177V177.04ZM161.79 174.25L161.91 174.2L161.79 174.25ZM162.71 177.12C162.803 177.258 162.88 177.405 162.94 177.56C162.88 177.405 162.803 177.258 162.71 177.12V177.12ZM159.65 187.6C159.703 187.629 159.761 187.649 159.82 187.66C159.761 187.649 159.703 187.629 159.65 187.6V187.6ZM160.48 187.6L160.25 187.66L160.48 187.6ZM160.6 187.6C160.732 187.553 160.86 187.492 160.98 187.42C160.859 187.486 160.732 187.539 160.6 187.58V187.6ZM163.5 174H163.41H163.5ZM162.77 174H162.64H162.77Z" fill="#7479FF"/>
<path d="M204.5 110.85C204.559 110.272 204.462 109.689 204.219 109.162C203.977 108.634 203.597 108.181 203.12 107.85L202.49 107.48C201.957 107.231 201.367 107.129 200.781 107.185C200.196 107.241 199.636 107.454 199.16 107.8L148 137.38C146.644 138.264 145.516 139.455 144.708 140.858C143.9 142.26 143.434 143.834 143.35 145.45L143.51 204.3C143.453 204.875 143.549 205.456 143.788 205.982C144.026 206.509 144.4 206.964 144.87 207.3L145.51 207.67C145.398 207.594 145.294 207.507 145.2 207.41C146.06 208.15 147.36 208.2 148.84 207.35L200 177.77C201.354 176.886 202.48 175.696 203.288 174.296C204.096 172.895 204.563 171.324 204.65 169.71L204.5 110.85ZM145.08 145.16C145.144 143.94 145.495 142.753 146.105 141.694C146.715 140.636 147.566 139.737 148.59 139.07L173 125L173.09 157.09L145.17 173.21L145.08 145.16ZM201.97 109.16C202.225 109.424 202.423 109.738 202.55 110.082C202.677 110.427 202.732 110.794 202.71 111.16L202.79 139.92L174.87 156L174.78 124L199.78 109.54C200.097 109.313 200.46 109.158 200.844 109.086C201.227 109.013 201.622 109.025 202 109.12L201.97 109.16ZM202.55 109.48C202.61 109.54 202.69 109.58 202.74 109.64C202.79 109.7 202.61 109.5 202.55 109.44V109.48ZM144.47 206.58C144.392 206.396 144.332 206.205 144.29 206.01C144.334 206.192 144.395 206.369 144.47 206.54V206.58ZM144.2 205.74C144.135 205.411 144.102 205.076 144.1 204.74C144.104 205.062 144.138 205.384 144.2 205.7V205.74ZM173.25 191.94L158 200.74L173.25 191.94ZM174.97 190.21L174.87 158.12L202.8 142L202.88 170C202.813 171.218 202.461 172.403 201.851 173.459C201.241 174.515 200.391 175.413 199.37 176.08L174.97 190.21ZM202.97 109.93C203.022 109.996 203.069 110.066 203.11 110.14C203.059 110.051 202.998 109.967 202.93 109.89L202.97 109.93ZM203.24 110.55C203.268 110.625 203.291 110.702 203.31 110.78C203.28 110.687 203.243 110.597 203.2 110.51L203.24 110.55ZM202.77 107.74C202.67 107.74 202.58 107.66 202.47 107.63C202.54 107.62 202.63 107.67 202.73 107.7L202.77 107.74ZM202 107.61C201.89 107.61 201.79 107.61 201.67 107.61C201.75 107.55 201.85 107.57 202 107.57V107.61ZM201.09 107.72C200.99 107.72 200.9 107.72 200.79 107.79C200.86 107.71 201 107.71 201.05 107.68L201.09 107.72ZM144.68 206.85C144.759 206.985 144.845 207.115 144.94 207.24C144.83 207.104 144.73 206.96 144.64 206.81L144.68 206.85ZM145.21 175.28L173.13 159.15L173.22 191.24L148.22 205.7C147.893 205.907 147.526 206.04 147.143 206.092C146.76 206.144 146.37 206.112 146 206C145.744 205.736 145.547 205.422 145.419 205.078C145.292 204.734 145.238 204.366 145.26 204L145.21 175.28ZM148.78 206.09C148.568 206.213 148.343 206.313 148.11 206.39C148.331 206.298 148.542 206.184 148.74 206.05L148.78 206.09ZM146.63 206.43C146.523 206.4 146.419 206.36 146.32 206.31C146.408 206.344 146.498 206.371 146.59 206.39L146.63 206.43ZM146.85 206.51C146.97 206.52 147.09 206.52 147.21 206.51C147.076 206.509 146.942 206.496 146.81 206.47L146.85 206.51ZM147.45 206.51C147.599 206.49 147.747 206.456 147.89 206.41C147.733 206.456 147.573 206.486 147.41 206.5L147.45 206.51ZM202.92 173C202.736 173.402 202.522 173.79 202.28 174.16C202.522 173.79 202.736 173.402 202.92 173C203.165 172.439 203.343 171.852 203.45 171.25C203.343 171.852 203.165 172.439 202.92 173V173Z" fill="#7479FF"/>
<path d="M190.65 125.47L190.01 125.09C189.22 124.63 188.16 124.79 186.85 125.54C186.129 125.959 185.478 126.489 184.92 127.11C184.322 127.789 183.823 128.55 183.44 129.37C182.995 130.291 182.659 131.261 182.44 132.26C182.214 133.406 182.103 134.572 182.11 135.74C182.11 138.19 182.52 139.83 183.34 140.65C183.467 140.782 183.612 140.897 183.77 140.99L184.41 141.36H184.36C185.14 141.85 186.17 141.72 187.47 140.96C188.2 140.545 188.855 140.011 189.41 139.38C190.009 138.7 190.511 137.939 190.9 137.12C191.33 136.19 191.648 135.214 191.85 134.21C192.088 133.059 192.199 131.885 192.18 130.71C192.18 128.15 191.77 126.483 190.95 125.71C190.856 125.623 190.756 125.542 190.65 125.47V125.47ZM190.08 125.26H189.99H190.08ZM189.87 130.83C189.87 131.02 189.87 131.21 189.87 131.41C189.89 131.21 189.89 131 189.87 130.83ZM185.87 138.57C185.724 138.381 185.613 138.167 185.54 137.94L189.28 131.82C189.328 133.242 189.121 134.661 188.67 136.01C188.367 136.952 187.745 137.759 186.91 138.29C186.601 138.498 186.232 138.597 185.86 138.57H185.87ZM185.16 134.57C185.124 133.189 185.327 131.812 185.76 130.5C186.052 129.558 186.669 128.75 187.5 128.22C187.82 128.011 188.198 127.906 188.58 127.92C188.714 128.079 188.816 128.262 188.88 128.46L185.16 134.57ZM189.24 128.31C189.159 128.205 189.061 128.114 188.95 128.04C189.056 128.108 189.15 128.193 189.23 128.29L189.24 128.31ZM188.37 125.53L188.49 125.48L188.37 125.53ZM189.29 128.39C189.387 128.525 189.464 128.673 189.52 128.83C189.463 128.666 189.382 128.511 189.28 128.37L189.29 128.39ZM189.35 125.26H189.22H189.35ZM186.23 138.88L186.4 138.94L186.23 138.88ZM187.06 138.88L186.83 138.94L187.06 138.88ZM187.18 138.88C187.31 138.834 187.434 138.774 187.55 138.7C187.429 138.761 187.302 138.808 187.17 138.84L187.18 138.88Z" fill="#7479FF"/>
<path d="M163.84 152.05L163.2 151.68L161.15 152.87L161.11 141.44L160.48 141.07L158.89 141.99L154.82 147.94L155.9 148.96L156.54 149.33L158.26 146.81L158.29 154.52L155.54 156.11L155.55 158.37L156.19 158.74L163.85 154.32L163.84 152.05Z" fill="#7479FF"/>
<path d="M53.17 70.3C55.3044 71.6914 57.0806 73.5665 58.3542 75.7732C59.6278 77.9799 60.363 80.4559 60.5 83L60.36 130.38C60.36 135.05 57.04 136.94 52.99 134.59L11.74 110.78C9.60504 109.389 7.82846 107.514 6.55477 105.307C5.28108 103.101 4.54624 100.624 4.41 98.08L4.55 50.7C4.55 46.04 7.87 44.15 11.93 46.49L53.17 70.3ZM57.08 128.49L57.21 81.1C57.1325 79.6971 56.7254 78.3321 56.0218 77.1159C55.3181 75.8997 54.3377 74.8665 53.16 74.1L11.92 50.27C9.68 49 7.85 50 7.84 52.6L7.71 100C7.78033 101.399 8.1791 102.762 8.87402 103.978C9.56895 105.194 10.5405 106.229 11.71 107L53 130.81C55.24 132.1 57.07 131.07 57.08 128.49Z" fill="#7479FF"/>
<path d="M36.51 73.61L36.43 103.55L43.05 107.38L43.03 112.95L24.18 102.07L24.2 96.49L30.96 100.39L31.02 78.22L25.17 79.98L22.54 74.38L32.62 71.37L36.51 73.61Z" fill="#7479FF"/>
<path d="M228 175.24C229.833 176.887 230.75 180.553 230.75 186.24C230.773 188.846 230.521 191.447 230 194C229.548 196.222 228.836 198.384 227.88 200.44C227.019 202.255 225.905 203.939 224.57 205.44C223.332 206.824 221.885 208.005 220.28 208.94C216.9 210.887 214.313 210.953 212.52 209.14C210.727 207.327 209.823 203.703 209.81 198.27C209.784 195.678 210.032 193.09 210.55 190.55C210.993 188.332 211.705 186.176 212.67 184.13C213.522 182.315 214.63 180.631 215.96 179.13C217.19 177.749 218.627 176.569 220.22 175.63C223.61 173.73 226.2 173.58 228 175.24ZM224.23 198.86C225.249 195.745 225.706 192.475 225.58 189.2C225.58 188.71 225.58 188.25 225.58 187.82C225.58 187.39 225.58 186.96 225.52 186.55L215.88 202.33C216.7 204.62 218.19 205.16 220.35 203.91C222.189 202.744 223.567 200.977 224.25 198.91L224.23 198.86ZM215 196.6C215 197 215.02 197.41 215.06 197.83L224.66 182.07C223.86 179.903 222.37 179.45 220.19 180.71C218.345 181.891 216.972 183.682 216.31 185.77C215.317 188.845 214.874 192.071 215 195.3C215 195.76 215 196.2 215 196.6" fill="#7479FF"/>
<path d="M236.87 155C241.44 152.36 245.17 154.49 245.18 159.74L245.29 198.62C245.29 203.87 241.6 210.29 237.03 212.93L203.2 232.48C198.63 235.12 194.9 232.99 194.88 227.74L194.77 188.87C194.77 183.61 198.46 177.2 203.04 174.56L236.87 155ZM242.32 200.33L242.21 161.46C242.21 158.09 239.81 156.71 236.88 158.46L203.05 178C201.502 179.006 200.214 180.364 199.291 181.963C198.368 183.562 197.836 185.356 197.74 187.2L197.85 226.07C197.85 229.44 200.26 230.8 203.19 229.07L237 209.53C238.545 208.527 239.831 207.172 240.752 205.577C241.674 203.981 242.204 202.19 242.3 200.35" fill="#7479FF"/>
<path d="M90.72 96.2899C90.72 96.9599 90.8 97.6199 90.86 98.2899L90.92 99.0299L91.04 100.03L106.34 108.85L106.47 108.78V108.71C106.38 108.28 106.3 107.85 106.23 107.41C106.1 106.58 106 105.74 105.91 104.89C105.91 104.64 105.86 104.4 105.84 104.15C105.78 103.49 105.73 102.83 105.7 102.15C105.7 101.92 105.7 101.69 105.7 101.47C105.7 100.6 105.65 99.7299 105.7 98.8499C105.7 98.6999 105.7 98.5499 105.7 98.3999C105.7 97.6499 105.7 96.8999 105.77 96.1499C105.77 95.8399 105.77 95.5199 105.77 95.2099L105.86 93.9799C105.86 93.6299 105.92 93.2799 105.96 92.9799C106 92.6799 106.04 92.1499 106.09 91.7299C106.14 91.3099 106.18 91.0299 106.22 90.7299L106.4 89.4699C106.46 89.1199 106.51 88.7699 106.57 88.4699C106.63 88.1699 106.72 87.6199 106.79 87.1899C106.86 86.7599 106.91 86.5399 106.98 86.1899C107.16 85.2799 107.35 84.3699 107.56 83.4599L107.65 83.1099C107.84 82.2999 108.05 81.4999 108.27 80.6999C108.35 80.3999 108.43 80.0999 108.52 79.7999C108.66 79.2899 108.81 78.7999 108.97 78.2799C109.06 77.9699 109.16 77.6499 109.26 77.3399C109.42 76.8199 109.6 76.3399 109.78 75.7699C109.87 75.4799 109.97 75.1899 110.07 74.8999L110.56 73.5499L110.91 72.6199C111.09 72.1399 111.29 71.6199 111.48 71.1899L111.81 70.3699L112.38 69.0599L112.76 68.1899C112.98 67.6999 113.2 67.1899 113.43 66.7499L113.76 66.0399C114.09 65.3699 114.43 64.6999 114.76 64.0399L114.82 63.9299C115.18 63.2299 115.55 62.5399 115.94 61.8599L116.18 61.4299C116.49 60.8799 116.81 60.3299 117.18 59.7899L117.64 59.0599C117.9 58.6299 118.16 58.1999 118.43 57.7799L118.88 57.0999L119.81 55.7099L120.35 54.9499C120.65 54.5399 120.95 54.1199 121.25 53.7199C121.42 53.4799 121.6 53.2499 121.77 53.0199C122.27 52.3699 122.77 51.7399 123.29 51.1099L123.54 50.8099C124.13 50.0999 124.73 49.4099 125.35 48.7399C125.59 48.4699 125.84 48.2099 126.1 47.9399L126.7 47.3099C126.99 47.0099 127.29 46.7299 127.58 46.4399L128.16 45.8699L129.16 44.9599C129.33 44.8099 129.49 44.6499 129.66 44.5099C130.16 44.0633 130.67 43.6333 131.19 43.2199C139.82 36.2699 148.35 34.4299 155.13 37.0799L140.13 31.2299C133.35 28.5799 124.82 30.4199 116.13 37.3699C115.62 37.7899 115.13 38.2199 114.61 38.6599L114.11 39.1099L113.11 40.0199L112.53 40.5899L111.65 41.4599L111.04 42.0899L110.47 42.6899L110.29 42.8999C109.68 43.5699 109.08 44.2499 108.49 44.9599C108.4 45.0599 108.32 45.1699 108.24 45.2699C107.72 45.8899 107.24 46.5299 106.72 47.1799L106.48 47.4799L106.14 47.9499C105.84 48.3199 105.58 48.7199 105.3 49.1099L104.76 49.8699C104.45 50.3199 104.14 50.7899 103.83 51.2499C103.72 51.4299 103.59 51.5999 103.48 51.7799L103.38 51.9299C103.11 52.3499 102.85 52.7799 102.58 53.2099L102.13 53.9499C101.81 54.4899 101.49 55.0299 101.13 55.5799C101.05 55.7199 100.97 55.8499 100.9 55.9899C100.52 56.6699 100.15 57.3599 99.78 58.0599C99.7817 58.0966 99.7817 58.1333 99.78 58.1699C99.43 58.8299 99.1 59.4999 98.78 60.1699C98.67 60.3999 98.57 60.6299 98.46 60.8499C98.23 61.3299 98 61.8499 97.79 62.2899C97.66 62.5799 97.53 62.8699 97.41 63.1599C97.29 63.4499 97.02 64.0299 96.84 64.4699V64.5699L96.55 65.2899C96.36 65.7699 96.16 66.2899 95.98 66.7299C95.86 67.0299 95.75 67.3399 95.63 67.6499L95.14 68.9999L95.05 69.2499L94.84 69.8799C94.67 70.3999 94.49 70.8799 94.33 71.4399L94.03 72.4399C93.88 72.9399 93.73 73.4399 93.59 73.9499C93.59 74.1299 93.48 74.3099 93.43 74.4899C93.38 74.6699 93.34 74.8799 93.26 75.0799C93.0325 75.7299 92.8652 76.3994 92.76 77.0799C92.76 77.2699 92.67 77.4499 92.63 77.6299C92.42 78.5399 92.22 79.4499 92.04 80.3699C92.04 80.4499 92.04 80.5399 92.04 80.6299C92.04 80.7199 91.96 81.1099 91.91 81.3499C91.83 81.7699 91.76 82.1999 91.69 82.6299C91.62 83.0599 91.57 83.3199 91.52 83.6299L91.34 84.8899C91.34 85.2399 91.25 85.5899 91.21 85.8899C91.17 86.1899 91.12 86.7299 91.07 87.1399L90.98 88.1899C90.98 88.5999 90.91 89.0199 90.89 89.4299C90.89 89.6099 90.89 89.7999 90.89 89.9799C90.89 90.1599 90.89 90.2299 90.89 90.3599C90.89 91.1099 90.82 91.8599 90.81 92.6099C90.81 92.7599 90.81 92.9099 90.81 93.0599C90.81 93.9399 90.81 94.8099 90.86 95.6799C90.69 95.8399 90.7 96.0599 90.72 96.2899Z" stroke="#7479FF" stroke-width="3.86" stroke-linecap="round" stroke-linejoin="round"/>
<path d="M168.58 73.39C169.286 68.0473 169.249 62.6326 168.47 57.3C165.04 35.65 148.29 29.3 131.14 43.09C113.99 56.88 102.81 85.74 106.24 107.39" stroke="#7479FF" stroke-width="3.86" stroke-linecap="round" stroke-linejoin="round"/>
<path d="M107.5 108.5L148.34 84.9C148.426 84.2762 148.426 83.6437 148.34 83.02C147.96 80.6 146.46 79.49 144.51 81.02L131.51 91.5C128.81 93.68 126.31 94.34 124.05 93.5C121.79 92.66 120.42 90.72 119.92 87.56C119.437 83.8398 119.895 80.0579 121.25 76.56C122.451 72.8701 124.669 69.5943 127.65 67.11L130.73 64.62L129.89 59.29C129.82 58.88 129.89 58.62 129.98 58.52L136.45 53.31C136.58 53.21 136.68 53.31 136.74 53.77L137.59 59.1L140.67 56.63C143.37 54.45 145.82 53.72 148 54.48C150.18 55.24 151.6 57.27 152.28 60.48C152.318 60.6655 152.302 60.858 152.235 61.0351C152.168 61.2121 152.052 61.3664 151.9 61.48L146.3 66C146.01 66.24 145.78 66.19 145.68 65.8C145.23 63.62 143.77 62.8 141.82 64.33L128.82 74.82C127.81 75.6488 127.063 76.7537 126.67 78C126.181 79.2379 126.015 80.5803 126.19 81.9C126.217 82.3998 126.366 82.8854 126.624 83.3143C126.882 83.7432 127.241 84.1022 127.67 84.36C128.093 84.569 128.573 84.6343 129.037 84.5458C129.501 84.4574 129.923 84.2201 130.24 83.87L143.24 73.39C145.88 71.27 148.38 70.59 150.67 71.39C152.96 72.19 154.35 74.25 154.85 77.39C155.04 78.5867 155.094 79.8011 155.01 81.01L168 73.39" stroke="#7479FF" stroke-width="3.86" stroke-linecap="round" stroke-linejoin="round"/>
<path d="M124 93.57C126.26 94.38 128.76 93.72 131.46 91.57L144.46 81.09C146.41 79.52 147.91 80.63 148.29 83.09C148.376 83.7138 148.376 84.3463 148.29 84.97L155 81.08C155.084 79.8712 155.03 78.6567 154.84 77.46C154.34 74.29 152.96 72.26 150.66 71.46C148.36 70.66 145.87 71.33 143.23 73.46L130.23 83.94C129.913 84.2902 129.491 84.5275 129.027 84.6159C128.563 84.7043 128.083 84.6391 127.66 84.43C127.231 84.1723 126.872 83.8133 126.614 83.3844C126.356 82.9555 126.207 82.4698 126.18 81.97C126.005 80.6504 126.171 79.308 126.66 78.07C127.039 76.8028 127.779 75.6735 128.79 74.82L141.79 64.34C143.79 62.77 145.2 63.63 145.65 65.81C145.75 66.2 145.98 66.25 146.27 66.01L151.81 61.56C151.962 61.4464 152.078 61.2921 152.145 61.1151C152.212 60.9381 152.228 60.7456 152.19 60.56C151.51 57.36 150.05 55.38 147.91 54.56C145.77 53.74 143.28 54.56 140.58 56.71L137.5 59.18L136.65 53.85C136.59 53.44 136.49 53.29 136.36 53.39L129.89 58.6C129.76 58.7 129.73 58.96 129.8 59.37L130.64 64.7L127.56 67.19C124.579 69.6744 122.361 72.9501 121.16 76.64C119.805 80.138 119.347 83.9198 119.83 87.64C120.36 90.79 121.73 92.74 124 93.57Z" stroke="#7479FF" stroke-width="3.86" stroke-linecap="round" stroke-linejoin="round"/>
</g>
<defs>
<clipPath id="clip0">
<rect width="262.31" height="262.31" fill="white"/>
</clipPath>
</defs>
</svg>
