<svg width="267" height="262" viewBox="0 0 267 262" fill="none" xmlns="http://www.w3.org/2000/svg">
<g clip-path="url(#clip0)">
<path d="M9.8 153.9C8.39907 146.219 7.6962 138.427 7.7 130.62C7.70517 103.102 16.5528 76.3143 32.9382 54.2066C49.3235 32.0989 72.3794 15.8417 98.7057 7.83213C125.032 -0.177394 153.235 0.484793 179.157 9.72104C205.078 18.9573 227.346 36.2787 242.676 59.131C258.005 81.9833 265.586 109.157 264.3 136.645C263.013 164.132 252.928 190.479 235.531 211.8C218.134 233.121 194.347 248.287 167.676 255.062C144.657 260.91 120.543 260.24 98 253.239" stroke="#0CCDCF" stroke-width="4.55" stroke-linecap="round" stroke-linejoin="round"/>
<path d="M27.74 199.52C37.8459 215.369 51.2608 228.769 67 238.837" stroke="#0CCDCF" stroke-width="4.55" stroke-linecap="round" stroke-linejoin="round"/>
<path d="M139.52 20.1999C135.06 17.6099 128.88 17.9699 122.06 21.9099L87.54 41.8499C74 49.6699 63 68.6299 63.08 84.1999V90.6899C63.08 98.4199 65.83 103.87 70.24 106.43L149.07 152.24C144.67 149.68 141.94 144.24 141.92 136.5V130.02C141.92 114.45 152.82 95.4899 166.37 87.6599L200.9 67.7299C207.72 63.7899 213.9 63.4199 218.36 66.0199L139.52 20.1999Z" stroke="#7479FF" stroke-width="3.45" stroke-linecap="round" stroke-linejoin="round"/>
<path d="M200.9 67.73C214.45 59.9 225.47 66.18 225.52 81.73V88.22C225.52 103.79 214.61 122.75 201.06 130.58L166.53 150.51C152.98 158.34 141.96 152.05 141.92 136.51V130.03C141.92 114.46 152.82 95.5 166.37 87.67L200.9 67.73Z" stroke="#7479FF" stroke-width="3.45" stroke-linecap="round" stroke-linejoin="round"/>
<path d="M147.91 179.52C150.479 169.868 154.995 160.843 161.18 153" stroke="#7479FF" stroke-width="3.45" stroke-linecap="round" stroke-linejoin="round"/>
<path d="M135.67 231.79L148.42 239.2C147.15 238.46 146.36 236.89 146.36 234.66V224.31" stroke="#7479FF" stroke-width="3.45" stroke-linecap="round" stroke-linejoin="round"/>
<path d="M86.87 116.08C79.69 126.76 75.1 139.53 75.14 150.87L75.26 193.34C75.26 195.57 76.05 197.14 77.32 197.88L91.45 206.09" stroke="#7479FF" stroke-width="3.45" stroke-linecap="round" stroke-linejoin="round"/>
<path d="M147.91 179.52C150.479 169.868 154.995 160.843 161.18 153" stroke="#7479FF" stroke-width="3.45" stroke-linecap="round" stroke-linejoin="round"/>
<path d="M194 134.69C202.53 136.12 208.19 143.88 208.23 156.41L208.35 198.87C208.221 201.319 207.514 203.704 206.287 205.828C205.06 207.952 203.348 209.755 201.29 211.09L153.47 238.71C149.56 240.96 146.38 239.16 146.37 234.66V224.97" stroke="#7479FF" stroke-width="3.45" stroke-linecap="round" stroke-linejoin="round"/>
<path d="M191.45 94C189.45 92.84 186.69 93 183.64 94.77C177.57 98.27 172.64 106.77 172.69 113.77C172.69 117.23 173.92 119.67 175.89 120.77L188.79 128.27C186.79 127.12 185.6 124.69 185.59 121.27C185.59 114.27 190.47 105.8 196.54 102.27C199.59 100.51 202.35 100.35 204.35 101.51L191.45 94Z" stroke="#7479FF" stroke-width="3.45" stroke-linecap="round" stroke-linejoin="round"/>
<path d="M196.54 102.27C202.6 98.7699 207.54 101.59 207.54 108.56C207.54 115.53 202.66 124.01 196.6 127.56C190.54 131.11 185.6 128.26 185.6 121.29C185.6 114.32 190.47 105.77 196.54 102.27Z" stroke="#7479FF" stroke-width="3.45" stroke-linecap="round" stroke-linejoin="round"/>
<path d="M185.674 164.913C187.219 162.852 189.151 161.11 191.363 159.782C194.349 158.065 197.052 157.899 199 159.031L186.369 151.724C184.411 150.593 181.708 150.749 178.722 152.466C172.788 155.88 167.951 164.172 168 171" stroke="#7479FF" stroke-width="3.45" stroke-linecap="round" stroke-linejoin="round"/>
<path d="M186.54 165.27C188.054 163.34 189.908 161.703 192.01 160.44C198.07 156.94 203.01 159.75 203.01 166.72C202.998 168.412 202.755 170.094 202.29 171.72" stroke="#7479FF" stroke-width="3.45" stroke-linecap="round" stroke-linejoin="round"/>
<path d="M83.9 81.19L84.52 80.83L84.66 80.76L84.03 81.12L83.9 81.19" stroke="#7479FF" stroke-width="3.45" stroke-linecap="round" stroke-linejoin="round"/>
<path d="M84 81.12L84.63 80.76C84.7275 80.7087 84.8319 80.6716 84.94 80.65L84.31 81.01C84.2032 81.0361 84.0994 81.073 84 81.12" stroke="#7479FF" stroke-width="3.45" stroke-linecap="round" stroke-linejoin="round"/>
<path d="M84.34 81L84.97 80.64C85.0874 80.608 85.2084 80.5911 85.33 80.59L84.7 81C84.5805 80.9852 84.4596 80.9852 84.34 81" stroke="#7479FF" stroke-width="3.45" stroke-linecap="round" stroke-linejoin="round"/>
<path d="M84.7 81L85.33 80.63C85.6836 80.6332 86.0295 80.7336 86.33 80.92L85.7 81.28C85.3989 81.0961 85.0528 80.9992 84.7 81Z" stroke="#7479FF" stroke-width="3.45" stroke-linecap="round" stroke-linejoin="round"/>
<path d="M83.9 81.19L84.52 80.83C84.791 80.6731 85.1007 80.5955 85.4136 80.6061C85.7266 80.6167 86.0303 80.7151 86.29 80.89L85.66 81.25C85.4023 81.0748 85.1002 80.9762 84.7887 80.9656C84.4772 80.955 84.1691 81.0328 83.9 81.19V81.19Z" stroke="#7479FF" stroke-width="3.45" stroke-linecap="round" stroke-linejoin="round"/>
<path d="M85.66 81.25L86.29 80.89L85.66 81.26" stroke="#7479FF" stroke-width="3.45" stroke-linecap="round" stroke-linejoin="round"/>
<path d="M85.71 81.28L86.34 80.91L86.65 81.13L86 81.5C85.8981 81.42 85.7912 81.3465 85.68 81.28" stroke="#7479FF" stroke-width="3.45" stroke-linecap="round" stroke-linejoin="round"/>
<path d="M86 81.5L86.62 81.13L86.87 81.34L86.24 81.71C86.1651 81.6344 86.0849 81.5642 86 81.5Z" stroke="#7479FF" stroke-width="3.45" stroke-linecap="round" stroke-linejoin="round"/>
<path d="M86.27 81.71L86.9 81.34L87.11 81.56L86.49 81.93C86.42 81.85 86.34 81.78 86.27 81.71" stroke="#7479FF" stroke-width="3.45" stroke-linecap="round" stroke-linejoin="round"/>
<path d="M86.49 81.9301L87.11 81.5601C87.1886 81.6386 87.2621 81.7221 87.33 81.8101L86.7 82.1701C86.63 82.0901 86.56 82.0001 86.49 81.9301" stroke="#7479FF" stroke-width="3.45" stroke-linecap="round" stroke-linejoin="round"/>
<path d="M86.7 82.1701L87.33 81.8101C87.4 81.9001 87.48 81.9901 87.55 82.0901L86.92 82.4501C86.85 82.3601 86.78 82.2601 86.7 82.1701Z" stroke="#7479FF" stroke-width="3.45" stroke-linecap="round" stroke-linejoin="round"/>
<path d="M86.92 82.45L87.55 82.09C87.6325 82.1993 87.7092 82.3128 87.78 82.43L87.16 82.79L86.92 82.45Z" stroke="#7479FF" stroke-width="3.45" stroke-linecap="round" stroke-linejoin="round"/>
<path d="M87.16 82.7901L87.78 82.4301C87.8794 82.5708 87.9696 82.7177 88.05 82.8701L87.43 83.2401C87.3367 83.0801 87.2467 82.9301 87.16 82.7901Z" stroke="#7479FF" stroke-width="3.45" stroke-linecap="round" stroke-linejoin="round"/>
<path d="M87.43 83.24L88.05 82.87C88.17 83.07 88.28 83.28 88.38 83.49L87.76 83.86C87.65 83.64 87.54 83.43 87.43 83.24Z" stroke="#7479FF" stroke-width="3.45" stroke-linecap="round" stroke-linejoin="round"/>
<path d="M87.76 83.86L88.38 83.49C88.53 83.81 88.68 84.14 88.81 84.49L88.19 84.85C88.05 84.5 87.91 84.17 87.76 83.85" stroke="#7479FF" stroke-width="3.45" stroke-linecap="round" stroke-linejoin="round"/>
<path d="M88.19 84.85L88.81 84.49C89.7028 86.8648 90.1535 89.3829 90.14 91.92C90.14 95.34 89.26 97.8 88 98.53L87.38 98.89C88.64 98.16 89.51 95.7 89.52 92.28C89.5277 89.7434 89.0772 87.2264 88.19 84.85" stroke="#7479FF" stroke-width="3.45" stroke-linecap="round" stroke-linejoin="round"/>
<path d="M88 98.53L87.38 98.89C88.64 98.16 89.51 95.7 89.52 92.28C89.52 87.43 87.8 82.48 85.66 81.28L86.29 80.92C88.43 82.15 90.16 87.09 90.14 91.92C90.13 95.34 89.26 97.8 88 98.53Z" stroke="#7479FF" stroke-width="3.45" stroke-linecap="round" stroke-linejoin="round"/>
<path d="M85.66 81.25C87.8 82.48 89.53 87.43 89.52 92.25C89.51 97.07 87.75 100.04 85.61 98.8C83.47 97.56 81.74 92.63 81.76 87.8C81.78 82.97 83.52 80 85.66 81.25Z" stroke="#7479FF" stroke-width="3.45" stroke-linecap="round" stroke-linejoin="round"/>
<path d="M113.78 98.4499L114.41 98.0799L114.54 98.0099L113.92 98.3699L113.78 98.4499" stroke="#7479FF" stroke-width="3.45" stroke-linecap="round" stroke-linejoin="round"/>
<path d="M113.92 98.3699L114.54 98.0099C114.64 97.9644 114.744 97.9276 114.85 97.8999L114.22 98.2699C114.117 98.2942 114.017 98.3276 113.92 98.3699" stroke="#7479FF" stroke-width="3.45" stroke-linecap="round" stroke-linejoin="round"/>
<path d="M114.22 98.2699L114.85 97.8999C114.973 97.8846 115.097 97.8846 115.22 97.8999L114.59 98.2599C114.467 98.2453 114.343 98.2453 114.22 98.2599" stroke="#7479FF" stroke-width="3.45" stroke-linecap="round" stroke-linejoin="round"/>
<path d="M114.59 98.2199L115.22 97.8599C115.572 97.8635 115.917 97.9601 116.22 98.1399L115.59 98.4999C115.289 98.316 114.943 98.2191 114.59 98.2199" stroke="#7479FF" stroke-width="3.45" stroke-linecap="round" stroke-linejoin="round"/>
<path d="M113.78 98.4499L114.41 98.0799C114.681 97.9229 114.991 97.8453 115.304 97.8559C115.617 97.8665 115.92 97.9649 116.18 98.1399L115.55 98.4999C115.288 98.3287 114.985 98.2334 114.672 98.2245C114.36 98.2157 114.051 98.2937 113.78 98.4499V98.4499Z" stroke="#7479FF" stroke-width="3.45" stroke-linecap="round" stroke-linejoin="round"/>
<path d="M115.55 98.4999L116.18 98.1399L115.56 98.4999" stroke="#7479FF" stroke-width="3.45" stroke-linecap="round" stroke-linejoin="round"/>
<path d="M115.6 98.5299L116.22 98.1699C116.333 98.234 116.44 98.3076 116.54 98.3899L115.91 98.7499L115.6 98.5299Z" stroke="#7479FF" stroke-width="3.45" stroke-linecap="round" stroke-linejoin="round"/>
<path d="M115.91 98.7499L116.54 98.3899C116.625 98.4541 116.705 98.5243 116.78 98.5999L116.16 98.9599L115.91 98.7499" stroke="#7479FF" stroke-width="3.45" stroke-linecap="round" stroke-linejoin="round"/>
<path d="M116.16 98.9999L116.78 98.6399C116.858 98.7081 116.932 98.7816 117 98.8599L116.38 99.2199L116.16 98.9999Z" stroke="#7479FF" stroke-width="3.45" stroke-linecap="round" stroke-linejoin="round"/>
<path d="M116.38 99.1799L117 98.8199C117.079 98.8985 117.152 98.982 117.22 99.0699L116.59 99.4299L116.38 99.1799" stroke="#7479FF" stroke-width="3.45" stroke-linecap="round" stroke-linejoin="round"/>
<path d="M116.59 99.4299L117.22 99.0699C117.29 99.1599 117.37 99.2499 117.44 99.3499L116.81 99.7099C116.742 99.6123 116.669 99.5188 116.59 99.4299" stroke="#7479FF" stroke-width="3.45" stroke-linecap="round" stroke-linejoin="round"/>
<path d="M116.81 99.7099L117.44 99.3499C117.522 99.4592 117.599 99.5727 117.67 99.6899L117.05 100.05L116.81 99.7099Z" stroke="#7479FF" stroke-width="3.45" stroke-linecap="round" stroke-linejoin="round"/>
<path d="M117.05 100.05L117.67 99.6899C117.76 99.8299 117.85 99.9699 117.94 100.13L117.32 100.49L117.05 100.05Z" stroke="#7479FF" stroke-width="3.45" stroke-linecap="round" stroke-linejoin="round"/>
<path d="M117.32 100.49L117.94 100.13C118.05 100.33 118.16 100.53 118.27 100.75L117.64 101.11C117.54 100.9 117.43 100.69 117.32 100.49" stroke="#7479FF" stroke-width="3.45" stroke-linecap="round" stroke-linejoin="round"/>
<path d="M117.64 101.11L118.27 100.75C118.42 101.06 118.57 101.39 118.7 101.75L118.08 102.11C117.94 101.76 117.8 101.43 117.64 101.11Z" stroke="#7479FF" stroke-width="3.45" stroke-linecap="round" stroke-linejoin="round"/>
<path d="M118.08 102.1L118.7 101.74C119.587 104.116 120.038 106.633 120.03 109.17C120.03 112.59 119.15 115.05 117.89 115.78L117.27 116.15C118.53 115.42 119.39 112.95 119.4 109.54C119.411 107.001 118.964 104.48 118.08 102.1" stroke="#7479FF" stroke-width="3.45" stroke-linecap="round" stroke-linejoin="round"/>
<path d="M117.89 115.78L117.27 116.15C118.53 115.42 119.39 112.95 119.4 109.54C119.4 104.68 117.69 99.7399 115.55 98.5399L116.18 98.1799C118.32 99.4199 120.04 104.36 120.03 109.18C120 112.59 119.15 115.05 117.89 115.78Z" stroke="#7479FF" stroke-width="3.45" stroke-linecap="round" stroke-linejoin="round"/>
<path d="M115.55 98.4998C117.69 99.7398 119.41 104.68 119.4 109.5C119.39 114.32 117.64 117.29 115.5 116.05C113.36 114.81 111.63 109.88 111.64 105.05C111.65 100.22 113.41 97.2698 115.55 98.4998Z" stroke="#7479FF" stroke-width="3.45" stroke-linecap="round" stroke-linejoin="round"/>
<path d="M196.57 114.9C196.67 114.48 250.33 47.5099 250.33 47.5099" stroke="#7479FF" stroke-width="3.45" stroke-linecap="round" stroke-linejoin="round"/>
<path d="M252.85 48.4099C255.087 48.4099 256.9 46.5967 256.9 44.3599C256.9 42.1232 255.087 40.3099 252.85 40.3099C250.613 40.3099 248.8 42.1232 248.8 44.3599C248.8 46.5967 250.613 48.4099 252.85 48.4099Z" stroke="#7479FF" stroke-width="3.45" stroke-linecap="round" stroke-linejoin="round"/>
<path d="M90.5 233.5C90.89 233.98 91.22 234.49 91.72 235.01C92.4725 235.803 92.6477 236.315 93.5 237M85.94 221.85C85.94 222.23 86 222.68 86.06 223.3C86.12 223.92 86.91 225.38 87 225.89M101.06 241.49C103.531 242.685 106.178 243.475 108.9 243.83C111.813 244.2 114.772 243.947 117.58 243.09C119.318 242.552 120.973 241.778 122.5 240.79C122.94 240.51 125.71 238.66 128.92 236.47C133.61 233.26 138.27 230.03 142.92 226.83M142.92 226.83C142.92 226.83 142.92 226.83 142.99 226.76C143.06 226.69 142.99 226.81 142.92 226.83ZM142.92 226.83L146.92 224.07L152.92 219.94L154.92 218.56L156.92 217.18L162.92 213.05M162.92 213.05C162.92 213.05 162.92 213.05 162.99 212.97C163.06 212.89 162.99 213.03 162.92 213.05ZM162.92 213.05L167.92 209.57C168.75 208.99 173.11 205.91 173.92 205.34C180.01 201.01 183.92 198.11 184.31 197.79C188.54 194.63 192.46 191.56 195.95 188.68C196.51 188.22 198.47 186.59 200.21 185.05C200.21 185.05 201.95 183.51 202.33 183.13C202.38 183.08 202.63 182.82 202.8 182.61C202.97 182.4 203.12 182.2 203.22 182.05C203.32 181.9 203.35 181.84 203.41 181.76C203.797 181.176 204.091 180.535 204.28 179.86C204.645 178.637 204.712 177.344 204.475 176.09C204.239 174.836 203.705 173.656 202.92 172.65C201.49 170.765 199.668 169.213 197.58 168.1L196.15 167.33C194.784 166.573 193.32 166.007 191.8 165.65C190.438 165.307 189.023 165.222 187.63 165.4M187.63 165.4C188.072 165.36 188.517 165.387 188.95 165.48M187.63 165.4C187.418 165.433 187.208 165.476 187 165.53C187 165.53 187 165.53 187.06 165.53C183.481 166.382 179.946 167.413 176.47 168.62C175.47 168.96 173.74 169.53 171.47 170.34C169.8 170.93 168.14 171.55 166.47 172.16C164.8 172.77 161.47 174.08 158.77 175.16C158.66 175.16 156.21 176.16 153.29 177.36L149 179.07C149 179.07 147.07 179.86 142.46 181.79H142.63H142.45C138.82 183.33 135.21 184.9 131.58 186.43C127.95 187.96 124.34 189.52 120.72 191.06M120.72 191.06L120.91 191.01M120.72 191.06C113.48 194.17 106.2 197.19 99 200.37C98.0134 200.819 97.0579 201.333 96.14 201.91C94.6984 202.832 93.3752 203.926 92.2 205.17C91.88 205.5 91.46 205.95 91.2 206.32C90.64 207.04 89.97 208.07 89.41 208.79C88.8674 209.65 88.383 210.545 87.96 211.47C87.76 211.91 87.58 212.34 87.42 212.76M202 182.61C199 185.4 195.81 188.01 192.61 190.61C189.41 193.21 186.18 195.61 182.92 198.04C176.39 202.83 169.74 207.55 163.09 212.16L143 225.89C136.3 230.46 129.64 235.12 122.94 239.59C120.795 241.061 118.343 242.022 115.77 242.4C112.813 242.871 109.784 242.364 107.141 240.956C104.499 239.548 102.388 237.317 101.13 234.6C97.13 226.42 100.55 215.4 108.65 209.99C109.535 209.397 110.469 208.878 111.44 208.44C118.62 205.28 125.88 202.26 133.13 199.15L154.86 189.88C162.09 186.88 169.38 183.88 176.65 181.07C180.29 179.68 183.99 178.37 187.65 177.07C191.31 175.77 195.01 174.68 198.75 173.74C198.82 173.83 199.08 173.66 199.25 173.64C199.825 173.558 200.41 173.598 200.968 173.757C201.526 173.917 202.045 174.191 202.49 174.564C202.935 174.936 203.297 175.398 203.552 175.92C203.807 176.441 203.949 177.01 203.97 177.59C204.05 178.522 203.914 179.46 203.572 180.33C203.23 181.201 202.692 181.981 202 182.61Z" stroke="#7479FF" stroke-width="3.45" stroke-linecap="round" stroke-linejoin="round"/>
<path d="M77.38 225C76.4682 224.995 75.5866 224.673 74.8853 224.09C74.1841 223.508 73.7066 222.7 73.5344 221.804C73.3622 220.909 73.5058 219.981 73.9408 219.18C74.3758 218.379 75.0753 217.753 75.92 217.41L87.5 212.755L89.08 212.12C90.0481 211.731 91.1308 211.743 92.09 212.153C93.0493 212.563 93.8065 213.337 94.195 214.305C94.5836 215.273 94.5716 216.356 94.1619 217.315C93.7521 218.274 92.9781 219.031 92.01 219.42L91 219.826L78.85 224.71C78.384 224.903 77.8844 225.002 77.38 225Z" stroke="#7479FF" stroke-width="3.45" stroke-linecap="round" stroke-linejoin="round"/>
<path d="M77.0878 239.78C76.1682 239.871 75.2461 239.635 74.4834 239.113C73.7207 238.591 73.1662 237.818 72.9173 236.928C72.6683 236.038 72.7409 235.089 73.1222 234.247C73.5035 233.406 74.1692 232.725 75.0024 232.326L89.887 224.767C90.3496 224.514 90.8584 224.356 91.3831 224.303C91.9079 224.251 92.4379 224.304 92.9415 224.461C93.4451 224.618 93.9121 224.874 94.3146 225.215C94.7171 225.555 95.0469 225.974 95.2843 226.445C95.5217 226.916 95.6619 227.429 95.6966 227.956C95.7312 228.482 95.6596 229.01 95.486 229.508C95.3123 230.006 95.0402 230.464 94.6859 230.854C94.3316 231.245 93.9022 231.56 93.4235 231.781L78.5388 239.34C78.0876 239.578 77.5951 239.727 77.0878 239.78Z" stroke="#7479FF" stroke-width="3.45" stroke-linecap="round" stroke-linejoin="round"/>
<path d="M81.804 248.417C81.5198 247.579 81.5261 246.67 81.8217 245.836C82.1174 245.002 82.6852 244.291 83.4338 243.819L95.4281 236.249C95.865 235.974 96.3519 235.787 96.861 235.7C97.3701 235.612 97.8913 235.626 98.3951 235.74C98.8988 235.855 99.3751 236.067 99.7967 236.365C100.218 236.663 100.577 237.042 100.853 237.479C101.128 237.916 101.315 238.403 101.402 238.912C101.489 239.421 101.475 239.942 101.361 240.446C101.247 240.949 101.035 241.426 100.737 241.847C100.438 242.269 100.06 242.628 99.623 242.903L87.6287 250.473C87.2079 250.745 86.7376 250.932 86.2446 251.021C85.4681 251.162 84.667 251.067 83.9452 250.748C83.2235 250.428 82.6142 249.9 82.1965 249.23C82.0375 248.966 81.9048 248.687 81.8004 248.398" stroke="#7479FF" stroke-width="3.45" stroke-linecap="round" stroke-linejoin="round"/>
<path d="M19 180.5L20.545 181.87L22.41 183.74M14.22 168.36L15 173M49 137.58C52.63 136 56.25 134.48 59.88 132.95C63.51 131.42 67.12 129.85 70.74 128.31L70.92 128.26L70.75 128.31C75.36 126.38 77.29 125.59 77.29 125.59L81.66 123.8L82.5 123.46L15.68 159.29C15.85 158.87 16.03 158.44 16.23 158C16.6584 157.073 17.1461 156.174 17.69 155.31C18.25 154.59 18.92 153.56 19.49 152.84C19.7995 152.437 20.1335 152.053 20.49 151.69C21.6604 150.445 22.9804 149.35 24.42 148.43C25.3392 147.856 26.2945 147.341 27.28 146.89C34.49 143.71 41.76 140.69 49 137.58ZM49 137.58L49.2 137.53M29.34 188C31.8142 189.196 34.4647 189.986 37.19 190.34C40.1031 190.709 43.0614 190.457 45.87 189.6C47.6061 189.058 49.2611 188.285 50.79 187.3C51.22 187.02 53.99 185.17 57.2 182.98C61.89 179.77 66.56 176.54 71.2 173.34M71.2 173.34L71.26 173.27M71.2 173.34L75.2 170.58" stroke="#7479FF" stroke-width="3.45" stroke-linecap="round" stroke-linejoin="round"/>
<path d="M74.7615 170.198L70.8547 172.921C64.1083 177.601 57.4023 182.372 50.666 186.949C48.4932 188.458 46.0101 189.442 43.4062 189.826C40.4292 190.306 37.3793 189.787 34.719 188.345C32.0587 186.904 29.9333 184.62 28.665 181.839C24.6876 173.464 28.0809 162.181 36.237 156.642C37.1333 156.036 38.0761 155.506 39.0563 155.055C46.2759 151.819 53.5962 148.727 60.8963 145.543L76.5 138" stroke="#7479FF" stroke-width="3.45" stroke-linecap="round" stroke-linejoin="round"/>
<path d="M5.67 171.49C4.75738 171.487 3.87416 171.167 3.17115 170.585C2.46814 170.003 1.98896 169.195 1.81543 168.299C1.6419 167.403 1.78479 166.475 2.2197 165.672C2.6546 164.87 3.35454 164.244 4.2 163.9L17.36 158.61C17.8393 158.417 18.352 158.32 18.8687 158.325C19.3854 158.33 19.8961 158.437 20.3715 158.64C20.8469 158.842 21.2778 159.136 21.6396 159.505C22.0014 159.874 22.287 160.311 22.48 160.79C22.673 161.269 22.7698 161.782 22.7647 162.299C22.7596 162.815 22.6528 163.326 22.4504 163.801C22.248 164.277 21.9539 164.708 21.5849 165.07C21.2159 165.431 20.7793 165.717 20.3 165.91L7.14 171.2C6.67372 171.392 6.17426 171.491 5.67 171.49V171.49Z" stroke="#7479FF" stroke-width="3.45" stroke-linecap="round" stroke-linejoin="round"/>
<path d="M5.76046 186.329C4.8527 186.383 3.95423 186.121 3.21821 185.587C2.48219 185.053 1.95416 184.28 1.72413 183.4C1.4941 182.52 1.5763 181.588 1.95673 180.762C2.33715 179.936 2.99225 179.267 3.81036 178.87L18.818 171.559C19.75 171.147 20.8057 171.113 21.7623 171.464C22.7188 171.816 23.5015 172.525 23.9452 173.442C24.3889 174.36 24.4588 175.414 24.1403 176.382C23.8218 177.35 23.1397 178.156 22.238 178.631L7.2503 185.941C6.78349 186.166 6.27751 186.297 5.76046 186.329V186.329Z" stroke="#7479FF" stroke-width="3.45" stroke-linecap="round" stroke-linejoin="round"/>
<path d="M13.6543 198.215C12.7514 198.347 11.8304 198.162 11.0486 197.691C10.2669 197.221 9.67283 196.493 9.36794 195.633C9.06306 194.772 9.06624 193.833 9.37695 192.975C9.68766 192.117 10.2866 191.393 11.0715 190.928L23.2982 183.739C23.7434 183.477 24.236 183.305 24.7477 183.233C25.2594 183.161 25.7803 183.191 26.2806 183.32C26.7808 183.45 27.2507 183.676 27.6633 183.987C28.076 184.298 28.4233 184.688 28.6855 185.133C28.9477 185.578 29.1196 186.071 29.1915 186.582C29.2633 187.094 29.2337 187.615 29.1042 188.115C28.9748 188.616 28.748 189.085 28.437 189.498C28.126 189.911 27.7367 190.258 27.2914 190.52L15.0648 197.709C14.6323 197.968 14.153 198.14 13.6543 198.215Z" stroke="#7479FF" stroke-width="3.45" stroke-linecap="round" stroke-linejoin="round"/>
</g>
<defs>
<clipPath id="clip0">
<rect width="266.67" height="261.25" fill="white"/>
</clipPath>
</defs>
</svg>
