<svg width="48" height="48" viewBox="0 0 48 48" fill="none" xmlns="http://www.w3.org/2000/svg">
<path d="M9.53601 19L7.73601 13.424C7.57362 12.9193 7.61829 12.3707 7.86019 11.899C8.10208 11.4272 8.52141 11.0707 9.02601 10.908L39.488 1.09599C39.9925 0.934917 40.5402 0.980479 41.0111 1.22268C41.482 1.46488 41.8376 1.88395 42 2.38799L46.904 17.616C46.9847 17.866 47.0154 18.1295 46.9942 18.3914C46.9731 18.6533 46.9005 18.9084 46.7807 19.1423C46.6609 19.3761 46.4962 19.584 46.296 19.7542C46.0958 19.9244 45.8641 20.0534 45.614 20.134L35 23.552" stroke="#7479FF" stroke-linecap="round" stroke-linejoin="round"/>
<path d="M9.27197 18.184L13.79 9.37402" stroke="#7479FF" stroke-linecap="round" stroke-linejoin="round"/>
<path d="M43.538 7.146L34.73 2.63" stroke="#7479FF" stroke-linecap="round" stroke-linejoin="round"/>
<path d="M45.3781 12.858L40.8621 21.666" stroke="#7479FF" stroke-linecap="round" stroke-linejoin="round"/>
<path d="M29.906 10.486L23.894 12.424C23.5017 12.5493 23.169 12.814 22.9587 13.1681C22.7484 13.5221 22.6751 13.9409 22.7527 14.3453C22.8303 14.7497 23.0534 15.1117 23.3797 15.3628C23.7061 15.6139 24.1132 15.7367 24.524 15.708L30.124 15.334C30.5348 15.3052 30.9418 15.428 31.2682 15.6791C31.5946 15.9302 31.8177 16.2922 31.8953 16.6966C31.9728 17.101 31.8996 17.5198 31.6893 17.8739C31.479 18.2279 31.1462 18.4926 30.754 18.618L29.568 19" stroke="#7479FF" stroke-linecap="round" stroke-linejoin="round"/>
<path d="M26.098 11.7139L25.486 9.80994" stroke="#7479FF" stroke-linecap="round" stroke-linejoin="round"/>
<path d="M35 37V43C35 44.0609 34.5786 45.0783 33.8284 45.8284C33.0783 46.5786 32.0609 47 31 47H5C3.93913 47 2.92172 46.5786 2.17157 45.8284C1.42143 45.0783 1 44.0609 1 43V23C1 21.9391 1.42143 20.9217 2.17157 20.1716C2.92172 19.4214 3.93913 19 5 19H31C32.0609 19 33.0783 19.4214 33.8284 20.1716C34.5786 20.9217 35 21.9391 35 23V29" stroke="#7479FF" stroke-linecap="round" stroke-linejoin="round"/>
<path d="M7.00806 19V47" stroke="#7479FF" stroke-linecap="round" stroke-linejoin="round"/>
<path d="M28 29C26.9391 29 25.9217 29.4214 25.1716 30.1716C24.4214 30.9217 24 31.9391 24 33C24 34.0609 24.4214 35.0783 25.1716 35.8284C25.9217 36.5786 26.9391 37 28 37H35C35.5304 37 36.0391 36.7893 36.4142 36.4142C36.7893 36.0391 37 35.5304 37 35V31C37 30.4696 36.7893 29.9609 36.4142 29.5858C36.0391 29.2107 35.5304 29 35 29H28Z" stroke="#7479FF" stroke-linecap="round" stroke-linejoin="round"/>
<path d="M32.5081 32.5C32.6069 32.5 32.7036 32.5293 32.7858 32.5843C32.8681 32.6392 32.9321 32.7173 32.97 32.8087C33.0078 32.9 33.0177 33.0006 32.9984 33.0975C32.9792 33.1945 32.9315 33.2836 32.8616 33.3536C32.7917 33.4235 32.7026 33.4711 32.6056 33.4904C32.5086 33.5097 32.4081 33.4998 32.3167 33.4619C32.2254 33.4241 32.1473 33.36 32.0923 33.2778C32.0374 33.1956 32.0081 33.0989 32.0081 33C32.0081 32.8674 32.0607 32.7402 32.1545 32.6464C32.2483 32.5527 32.3754 32.5 32.5081 32.5Z" stroke="#7479FF" stroke-linecap="round" stroke-linejoin="round"/>
</svg>
