<svg width="48" height="48" viewBox="0 0 48 48" fill="none" xmlns="http://www.w3.org/2000/svg">
<path d="M21.898 40.4281C19.468 37.5441 13.054 34.7281 2.968 34.4021C2.44313 34.3937 1.94261 34.1792 1.57443 33.8051C1.20625 33.4309 0.999933 32.927 1 32.4021V4.02205C0.999957 3.75635 1.05286 3.49331 1.15561 3.24828C1.25836 3.00325 1.40891 2.78115 1.59846 2.59496C1.788 2.40876 2.01275 2.2622 2.25957 2.16384C2.50639 2.06547 2.77034 2.01727 3.036 2.02205C16.116 2.45805 23 7.08805 23 10.6001C23 7.09805 30.728 2.49205 42.956 2.02405C43.2223 2.01819 43.4871 2.06559 43.7349 2.16348C43.9826 2.26136 44.2083 2.40775 44.3987 2.59405C44.5891 2.78036 44.7404 3.00282 44.8437 3.24838C44.9469 3.49395 45.0001 3.75767 45 4.02405V29.9861" stroke="#7479FF" stroke-linecap="round" stroke-linejoin="round"/>
<path d="M23 10.6021V32.986" stroke="#7479FF" stroke-linecap="round" stroke-linejoin="round"/>
<path d="M18 11.986C14.4341 10.7126 10.734 9.8523 6.97205 9.422" stroke="#7479FF" stroke-linecap="round" stroke-linejoin="round"/>
<path d="M29 20.9861C32.5665 19.7125 36.2674 18.8522 40.03 18.4221" stroke="#7479FF" stroke-linecap="round" stroke-linejoin="round"/>
<path d="M18 20.9861C14.4341 19.7127 10.734 18.8524 6.97205 18.4221" stroke="#7479FF" stroke-linecap="round" stroke-linejoin="round"/>
<path d="M18 28.986C14.4013 27.7006 10.6668 26.8329 6.87 26.4" stroke="#7479FF" stroke-linecap="round" stroke-linejoin="round"/>
<path d="M29 11.986C32.5998 10.6994 36.3357 9.83173 40.134 9.40002" stroke="#7479FF" stroke-linecap="round" stroke-linejoin="round"/>
<path d="M47 45.9861V43.7861C47.008 42.2977 46.4411 40.8637 45.4175 39.7831C44.3939 38.7025 42.9927 38.0587 41.506 37.9861H37V28.4861C37 27.823 36.7366 27.1872 36.2678 26.7183C35.799 26.2495 35.1631 25.9861 34.5 25.9861C33.837 25.9861 33.2011 26.2495 32.7323 26.7183C32.2634 27.1872 32 27.823 32 28.4861V42.9861L28.958 38.7081C28.8325 38.4591 28.6586 38.2376 28.4465 38.0565C28.2344 37.8754 27.9884 37.7384 27.7228 37.6534C27.4572 37.5684 27.1773 37.5372 26.8995 37.5616C26.6217 37.5859 26.3515 37.6654 26.1048 37.7953C25.858 37.9252 25.6396 38.1029 25.4622 38.3181C25.2849 38.5333 25.1522 38.7817 25.0719 39.0488C24.9916 39.3158 24.9653 39.5962 24.9945 39.8736C25.0237 40.1509 25.1078 40.4196 25.242 40.6641L28.042 45.9861" stroke="#7479FF" stroke-linecap="round" stroke-linejoin="round"/>
</svg>
