<svg xmlns="http://www.w3.org/2000/svg" viewBox="0 0 341.58 287.52"><defs><style>.cls-1,.cls-2{fill:none;stroke-linecap:round;}.cls-1{stroke:#0ccdcf;stroke-miterlimit:10;stroke-width:3.68px;}.cls-2{stroke:#7479ff;stroke-linejoin:round;stroke-width:2.95px;}</style></defs><g id="Layer_2" data-name="Layer 2"><g id="Layer_1-2" data-name="Layer 1"><path class="cls-1" d="M53.88,231.78A139,139,0,0,0,294.43,172"/><path class="cls-1" d="M279.09,70.87A139,139,0,0,0,28.64,189.2"/><rect class="cls-2" x="83.01" y="46.41" width="140.39" height="94.42" rx="47.21"/><rect class="cls-2" x="95.64" y="64.45" width="115.12" height="58.32" rx="9.56"/><circle class="cls-2" cx="124.67" cy="93.61" r="8.86"/><circle class="cls-2" cx="181.74" cy="93.61" r="8.86"/><path class="cls-2" d="M82.75,75.45H83a0,0,0,0,1,0,0v36.34a0,0,0,0,1,0,0h-.25A18.17,18.17,0,0,1,64.58,93.61v0A18.17,18.17,0,0,1,82.75,75.45Z"/><path class="cls-2" d="M241.57,75.45h.25a0,0,0,0,1,0,0v36.34a0,0,0,0,1,0,0h-.25A18.17,18.17,0,0,1,223.4,93.61v0A18.17,18.17,0,0,1,241.57,75.45Z" transform="translate(465.22 187.23) rotate(-180)"/><path class="cls-2" d="M241.82,98a4.43,4.43,0,1,0,0-8.85"/><line class="cls-2" x1="246.25" y1="93.61" x2="246.25" y2="16.82"/><circle class="cls-2" cx="246.25" cy="13.51" r="3.31"/><path class="cls-2" d="M153.2,140.82h0A74.16,74.16,0,0,1,227.36,215v9.17a0,0,0,0,1,0,0H79a0,0,0,0,1,0,0V215A74.16,74.16,0,0,1,153.2,140.82Z"/><circle class="cls-2" cx="153.2" cy="181.21" r="14.19"/><line class="cls-2" x1="79.04" y1="208.4" x2="227.36" y2="208.4"/><path class="cls-2" d="M127.92,224.15h50.57a0,0,0,0,1,0,0v0a13.16,13.16,0,0,1-13.16,13.16H141.08a13.16,13.16,0,0,1-13.16-13.16v0a0,0,0,0,1,0,0Z"/><path class="cls-2" d="M99.14,164.44a18.77,18.77,0,1,0-18.41,29.38"/><path class="cls-2" d="M207.37,163.09a18.77,18.77,0,1,1,18,29.66"/><path class="cls-2" d="M68.51,187.31,27,269.82a6.2,6.2,0,0,1-10,1.55l-5.33-5.46c-9.41-9.63-10.85-28.47-3-39.41l35.42-41.86c4.3-6,12.21-10.63,20-12.21"/><path class="cls-2" d="M31.33,261.24l-3.74,7.44,4.13,8.95a3.27,3.27,0,0,0,2.74,1.89,3.31,3.31,0,0,0,1.59-.29,3.26,3.26,0,0,0,1.59-4.33Z"/><path class="cls-2" d="M17,271.37l-.94-1-.85,12.16a3.26,3.26,0,0,0,6.5.46l.69-9.86A6.17,6.17,0,0,1,17,271.37Z"/><path class="cls-2" d="M11.64,266a24.15,24.15,0,0,1-2.76-3.42L8,275.2a3.26,3.26,0,1,0,6.51.45l.44-6.31Z"/><path class="cls-2" d="M3.88,248.25,1.5,266.91a3.26,3.26,0,0,0,2.82,3.65l.19,0A3.26,3.26,0,0,0,8,267.74l.72-5.63A32.9,32.9,0,0,1,3.88,248.25Z"/><path class="cls-2" d="M269.2,161.86l-3.75,3.75c-4.45,5.24-16.79,8.34-24.21,9.57"/><line class="cls-2" x1="235.6" y1="159.15" x2="265.46" y2="121.58"/><line class="cls-2" x1="235.39" y1="159.9" x2="235.6" y2="159.15"/><path class="cls-2" d="M311.26,76.23l18.4-1.18a5.4,5.4,0,0,1,5.73,5l4.7,73.88a5.4,5.4,0,0,1-5,5.73l-61.5,3.91a5.39,5.39,0,0,1-5.73-5L263.11,84.7A5.4,5.4,0,0,1,268.16,79l20.66-1.32"/><path class="cls-2" d="M302.63,87.88h0a3.66,3.66,0,0,1,6.8,1.74h0a3.67,3.67,0,0,0,5.1,3.24h0a3.66,3.66,0,0,1,4.48,5.4h0a3.67,3.67,0,0,0,2.23,5.62h0a3.66,3.66,0,0,1,.45,7h0a3.66,3.66,0,0,0-1.5,5.85h0a3.66,3.66,0,0,1-3.76,5.93h0a3.67,3.67,0,0,0-4.65,3.86h0a3.66,3.66,0,0,1-6.53,2.59h0a3.66,3.66,0,0,0-6,.38h0a3.66,3.66,0,0,1-6.8-1.74h0a3.66,3.66,0,0,0-5.1-3.23h0a3.67,3.67,0,0,1-4.49-5.41h0a3.66,3.66,0,0,0-2.22-5.62h0a3.66,3.66,0,0,1-.45-7h0a3.66,3.66,0,0,0,1.5-5.85h0a3.66,3.66,0,0,1,3.76-5.93h0a3.66,3.66,0,0,0,4.65-3.85h0a3.66,3.66,0,0,1,6.53-2.6h0A3.66,3.66,0,0,0,302.63,87.88Z"/><path class="cls-2" d="M300.71,128.11l-3,24.71a.35.35,0,0,1-.62.17l-3.34-4.37a2.57,2.57,0,0,0-3.67-.44l-4.29,3.45a.34.34,0,0,1-.56-.31l3.26-27.08"/><path class="cls-2" d="M303.6,127.92l6.08,24.14a.34.34,0,0,0,.63.09l2.76-4.76a2.58,2.58,0,0,1,3.59-.9l4.69,2.88a.35.35,0,0,0,.52-.38l-6.67-26.44"/><path class="cls-2" d="M292.19,83.56a3.36,3.36,0,0,1-3.37-3.36V74.65a3.37,3.37,0,0,1,6.73,0V80.2A3.36,3.36,0,0,1,292.19,83.56Z"/><path class="cls-2" d="M299.21,82.94a3.65,3.65,0,0,1-.92-.13A3.36,3.36,0,0,1,296,78.66l1.51-5.34A3.36,3.36,0,0,1,304,75.15l-1.51,5.34A3.37,3.37,0,0,1,299.21,82.94Z"/><path class="cls-2" d="M306.82,82.94a3.57,3.57,0,0,1-.91-.13,3.37,3.37,0,0,1-2.33-4.15l1.51-5.34a3.37,3.37,0,0,1,6.48,1.83l-1.51,5.34A3.37,3.37,0,0,1,306.82,82.94Z"/></g></g></svg>